<svg width="101" height="101" viewBox="0 0 101 101" fill="none" xmlns="http://www.w3.org/2000/svg">
<path d="M101 16.834H0V84.1659H101V16.834Z" fill="#F0F0F0"/>
<path d="M46.6158 16.834H0V84.1659H46.6158V16.834Z" fill="#0052B4"/>
<path d="M33.8076 28.5435V34.0326C33.8076 36.761 36.0196 38.9727 38.7477 38.9727C41.4759 38.9727 43.6879 36.7608 43.6879 34.0326V28.5435H33.8076Z" fill="#D80027"/>
<path d="M38.7481 36.0453C37.6382 36.0453 36.7354 35.1425 36.7354 34.0326V31.4709H40.7606V34.0326C40.761 35.1425 39.8581 36.0453 38.7481 36.0453Z" fill="#F0F0F0"/>
<path d="M58.3254 51.964H49.5428C49.5428 50.3475 48.2319 49.0366 46.6154 49.0366C44.9988 49.0366 43.6879 50.3475 43.6879 51.964H34.9053C34.9053 53.5808 36.3136 54.8915 37.9301 54.8915H37.8327C37.8327 56.5083 39.1433 57.8189 40.7601 57.8189C40.7601 59.4357 42.0708 60.7463 43.6875 60.7463H49.5428C51.1594 60.7463 52.4702 59.4357 52.4702 57.8189C54.0868 57.8189 55.3976 56.5083 55.3976 54.8915H55.3002C56.9172 54.8915 58.3254 53.5808 58.3254 51.964Z" fill="#FFDA44"/>
<path d="M59.5286 47.2791L58.7601 48.5094L59.6924 49.6204L58.2847 49.2701L57.5157 50.5L57.4145 49.0529L56.0068 48.7017L57.3522 48.1583L57.2512 46.7109L58.1837 47.8227L59.5286 47.2791Z" fill="#FFDA44"/>
<path d="M55.0444 43.5159L54.7429 44.935L55.9991 45.6603L54.5561 45.8122L54.2547 47.2312L53.6645 45.9059L52.2217 46.0574L53.3001 45.0865L52.7101 43.7615L53.9661 44.4868L55.0444 43.5159Z" fill="#FFDA44"/>
<path d="M49.5424 41.5137L49.7444 42.9504L51.173 43.2023L49.8694 43.8384L50.071 45.2749L49.0634 44.2312L47.7593 44.8674L48.4404 43.5861L47.4326 42.5428L48.8616 42.7947L49.5424 41.5137Z" fill="#FFDA44"/>
<path d="M43.6888 41.5137L44.3702 42.7947L45.7988 42.5426L44.7911 43.5863L45.4719 44.8674L44.1684 44.2312L43.1603 45.2747L43.3623 43.8384L42.0586 43.2027L43.487 42.9504L43.6888 41.5137Z" fill="#FFDA44"/>
<path d="M38.1872 43.5159L39.2652 44.4868L40.5214 43.7615L39.9316 45.0871L41.0095 46.0576L39.5667 45.9059L38.9764 47.2312L38.6754 45.812L37.2324 45.6605L38.4886 44.9352L38.1872 43.5159Z" fill="#FFDA44"/>
<path d="M33.7026 47.2791L35.0477 47.8228L35.9798 46.7112L35.8794 48.1589L37.2242 48.7022L35.8163 49.0531L35.7149 50.5001L34.9466 49.2701L33.5391 49.6207L34.4715 48.5095L33.7026 47.2791Z" fill="#FFDA44"/>
</svg>
