<svg width="101" height="101" viewBox="0 0 101 101" fill="none" xmlns="http://www.w3.org/2000/svg">
<path d="M101 16.8328H0V84.1647H101V16.8328Z" fill="#D80027"/>
<path d="M101 16.8328H65.1387V84.1668H101V16.8328Z" fill="#496E2D"/>
<path d="M35.8615 16.8328H0V84.1668H35.8615V16.8328Z" fill="black"/>
<path d="M50.5001 38.7888C44.0328 38.7888 38.79 44.0315 38.79 50.4989C38.79 56.9663 44.0328 62.209 50.5001 62.209C56.9675 62.209 62.2102 56.9663 62.2102 50.4989C62.2102 44.0315 56.9675 38.7888 50.5001 38.7888ZM50.5001 57.8177C46.458 57.8177 43.1814 54.5409 43.1814 50.4989C43.1814 46.4569 46.458 43.1801 50.5001 43.1801C54.5423 43.1801 57.8189 46.4567 57.8189 50.4989C57.8189 54.5411 54.5423 57.8177 50.5001 57.8177Z" fill="#FFDA44"/>
<path d="M50.4997 46.1077C48.8829 46.1077 47.5723 47.4183 47.5723 49.0351V53.4264H53.4275V49.0351C53.4271 47.4181 52.1165 46.1077 50.4997 46.1077Z" fill="#FFDA44"/>
</svg>
