<svg width="101" height="101" viewBox="0 0 101 101" fill="none" xmlns="http://www.w3.org/2000/svg">
<path d="M101 16.8328H0V84.1668H101V16.8328Z" fill="#F0F0F0"/>
<path d="M101 16.8328H0V26.4518H101V16.8328Z" fill="#6DA544"/>
<path d="M101 36.071H0V45.6901H101V36.071Z" fill="#6DA544"/>
<path d="M101 55.3093H0V64.9284H101V55.3093Z" fill="#6DA544"/>
<path d="M101 74.5457H0V84.1647H101V74.5457Z" fill="#6DA544"/>
<path d="M50.5 16.8328H0V45.6902H50.5V16.8328Z" fill="#D80027"/>
<path d="M23.0547 39.4093L21.5908 36.4819V30.6266L25.2503 27.6992L28.9098 30.6266V35.018L30.3735 33.5543V36.4819L27.4459 39.4093H23.0547Z" fill="#F0F0F0"/>
<path d="M15.1815 30.4314L15.5691 31.6243H16.8231L15.8086 32.3612L16.1964 33.5541L15.1815 32.8169L14.1669 33.5541L14.5544 32.3612L13.54 31.6243H14.7941L15.1815 30.4314Z" fill="#F0F0F0"/>
<path d="M18.1094 27.5039L18.497 28.697H19.7513L18.7365 29.434L19.1242 30.6266L18.1094 29.8896L17.0949 30.6266L17.4825 29.434L16.4678 28.697H17.722L18.1094 27.5039Z" fill="#F0F0F0"/>
<path d="M21.0364 24.5762L21.4238 25.769H22.678L21.6635 26.5064L22.0509 27.6991L21.0364 26.9619L20.0216 27.6991L20.4093 26.5064L19.3945 25.769H20.6487L21.0364 24.5762Z" fill="#F0F0F0"/>
<path d="M35.3184 30.4314L34.9308 31.6243H33.6768L34.6913 32.3612L34.3035 33.5541L35.3184 32.8169L36.3329 33.5541L35.9455 32.3612L36.9599 31.6243H35.7058L35.3184 30.4314Z" fill="#F0F0F0"/>
<path d="M32.3905 27.5039L32.003 28.697H30.749L31.7636 29.434L31.3759 30.6266L32.3905 29.8896L33.4054 30.6266L33.0176 29.434L34.0323 28.697H32.7781L32.3905 27.5039Z" fill="#F0F0F0"/>
<path d="M29.4639 24.5762L29.0765 25.769H27.8223L28.8368 26.5064L28.4494 27.6991L29.4639 26.9619L30.4786 27.6991L30.091 26.5064L31.1058 25.769H29.8515L29.4639 24.5762Z" fill="#F0F0F0"/>
<path d="M25.25 23.1125L24.8624 24.3056H23.6084L24.6229 25.0426L24.2355 26.2353L25.25 25.4983L26.2646 26.2353L25.8772 25.0426L26.8917 24.3056H25.6379L25.25 23.1125Z" fill="#F0F0F0"/>
</svg>
