<svg width="101" height="101" viewBox="0 0 101 101" fill="none" xmlns="http://www.w3.org/2000/svg">
<path d="M101 16.8335H0V84.1675H101V16.8335Z" fill="#0052B4"/>
<path d="M84.3814 58.355C85.3494 57.0231 85.9961 55.3966 85.9961 53.4269V38.7892C84.7726 39.7083 83.2527 40.2531 81.6047 40.2531C79.2103 40.2531 77.085 39.1033 75.7495 37.3259C74.414 39.1033 72.2887 40.2531 69.8943 40.2531C68.2465 40.2531 66.7264 39.7085 65.5029 38.7898V53.4271C65.5029 55.3968 66.1496 57.0237 67.1175 58.3552H84.3814V58.355Z" fill="#F3F3F3"/>
<path d="M81.3366 50.7113C81.8025 49.5745 82.1651 47.9125 82.1651 47.0852C82.1651 45.7562 80.4325 44.679 80.4325 44.679C80.4325 44.679 78.6999 45.7562 78.6999 47.0852C78.6999 47.9125 79.0625 49.5745 79.5285 50.7113L78.5283 52.9696C79.1162 53.2087 79.7587 53.3415 80.4325 53.3415C81.1064 53.3415 81.7489 53.2087 82.3367 52.9696L81.3366 50.7113Z" fill="#FF9811"/>
<path d="M74.5648 43.3992C73.3475 43.5641 71.7272 44.0815 71.0107 44.4952C69.8596 45.1598 69.793 47.1985 69.793 47.1985C69.793 47.1985 71.5922 48.1602 72.7431 47.4958C73.4595 47.0821 74.7173 45.9374 75.4685 44.9653L77.9247 44.7023C77.8377 44.0738 77.6311 43.4511 77.2946 42.8674C76.9573 42.2839 76.5215 41.7935 76.0204 41.4041L74.5648 43.3992Z" fill="#FF9811"/>
<path d="M71.619 52.9198C72.3704 53.8913 73.6286 55.0361 74.3449 55.4495C75.4959 56.1139 77.295 55.1522 77.295 55.1522C77.295 55.1522 77.2281 53.1133 76.0772 52.4487C75.3606 52.035 73.7404 51.5182 72.5227 51.3535L71.0673 49.3582C70.5664 49.7478 70.1303 50.2382 69.7932 50.8211C69.4564 51.405 69.2501 52.0276 69.1631 52.6564L71.619 52.9198Z" fill="#FF9811"/>
<path d="M66.7559 57.8184C69.4898 62.2048 75.7496 63.673 75.7496 63.673C75.7496 63.673 82.0094 62.2048 84.7433 57.8184H66.7559Z" fill="#338AF3"/>
<path d="M50.4998 36.8225H28.4072V50.4991H31.5623V40.8493L46.0361 50.4991H50.4998L34.7174 39.9776H39.1811L50.4998 47.5242V46.0378L41.412 39.9778H50.4998V36.8225Z" fill="#F0F0F0"/>
<path d="M34.7174 27.3529L50.4998 16.8335H46.0361L31.5623 26.4812V16.8335H28.4072V30.5101H50.4998V27.3529H41.412L50.4998 21.2951V19.8087L39.1813 27.3529H34.7174Z" fill="#F0F0F0"/>
<path d="M18.9375 16.8335V26.4812L4.46373 16.8335H0L15.7824 27.3529H11.3185L0 19.8085V21.2951L9.08783 27.3529H0V30.5103H22.0926V16.8335H18.9375Z" fill="#F0F0F0"/>
<path d="M0 36.8225V39.9776H9.08783L0 46.0378V47.5242L11.3185 39.9778H15.7822L0 50.4993H4.46373L18.9375 40.8493V50.4991H22.0926V36.8225H0Z" fill="#F0F0F0"/>
<path d="M28.4062 16.8325H22.0938V30.5097H0V36.8222H22.0938V50.4995H28.4062V36.8222H50.5V30.5097H28.4062V16.8325Z" fill="#D80027"/>
<path d="M15.7812 27.3535L0 16.8325V19.8079L11.3185 27.3535H15.7812Z" fill="#D80027"/>
<path d="M34.7188 27.3535H39.1815L50.5 19.8079V16.8325L34.7188 27.3535Z" fill="#D80027"/>
<path d="M11.3185 39.9785L0 47.5243V50.4995L15.7812 39.9785H11.3185Z" fill="#D80027"/>
<path d="M34.7188 39.9785L50.5 50.4995V47.5243L39.1815 39.9785H34.7188Z" fill="#D80027"/>
</svg>
