<svg width="101" height="101" viewBox="0 0 101 101" fill="none" xmlns="http://www.w3.org/2000/svg">
<path d="M101 16.8328H0V84.1668H101V16.8328Z" fill="#D80027"/>
<path d="M101 31.7939H0V39.2745H101V31.7939Z" fill="#FFDA44"/>
<path d="M101 46.7573H0V54.2378H101V46.7573Z" fill="#FFDA44"/>
<path d="M101 61.7207H0V69.2012H101V61.7207Z" fill="#FFDA44"/>
<path d="M101 76.6841H0V84.1646H101V76.6841Z" fill="#FFDA44"/>
<path d="M101 16.8328H0V24.3133H101V16.8328Z" fill="#FFDA44"/>
<path d="M50.5 16.8328H0V50.4987H50.5V16.8328Z" fill="#4A1F63"/>
<path d="M34.0328 30.7377V33.6653H32.5689V30.7377H29.6415V33.6653H28.1775V27.8101H22.3227V33.6653H20.8588V30.7377H17.9314V33.6653H16.4675V30.7377H13.54V39.5203H36.9602V30.7377H34.0328Z" fill="#F0F0F0"/>
</svg>
