<svg width="101" height="101" viewBox="0 0 101 101" fill="none" xmlns="http://www.w3.org/2000/svg">
<path d="M101 16.834H0V84.1659H101V16.834Z" fill="#F0F0F0"/>
<path d="M0 84.1659H101V16.834L0 84.1659Z" fill="#0052B4"/>
<path d="M49.4022 16.834H0V49.7665L49.4022 16.834Z" fill="#FFDA44"/>
<path d="M37.096 49.3636L39.9974 47.792L37.096 46.2204C36.4186 41.8198 32.9416 38.3428 28.5414 37.6658L26.9698 34.7644L25.3982 37.6658C20.9976 38.3432 17.5208 41.8202 16.8436 46.2204L13.9424 47.7922L16.8438 49.3638C17.5212 53.7644 20.9982 57.2414 25.3984 57.9185L26.9698 60.8196L28.5414 57.9183C32.9418 57.2412 36.4186 53.764 37.096 49.3636ZM26.9696 53.6471C23.7358 53.6471 21.1144 51.0256 21.1144 47.7918C21.1144 44.558 23.7358 41.937 26.9696 41.937C30.2034 41.937 32.8248 44.5584 32.8248 47.7922C32.8248 51.026 30.2034 53.6471 26.9696 53.6471Z" fill="black"/>
<path d="M26.9697 43.4009L28.2375 45.5964H30.7728L29.5051 47.7922L30.7728 49.9878H28.2375L26.9697 52.1835L25.7022 49.9878H23.167L24.4344 47.7922L23.167 45.5964H25.7022L26.9697 43.4009Z" fill="#D80027"/>
</svg>
