<svg width="100" height="100" viewBox="0 0 100 100" fill="none" xmlns="http://www.w3.org/2000/svg">
<g clip-path="url(#clip0_1124_5619)">
<path d="M100 16.6667H0V83.3342H100V16.6667Z" fill="#F0F0F0"/>
<path d="M100 16.6667H0V49.9993H100V16.6667Z" fill="#F0F0F0"/>
<path d="M100 30.208H0V36.4581H100V30.208Z" fill="#D80027"/>
<path d="M74.3457 39.1292L100 45.5426V39.1292H74.3457Z" fill="#0052B4"/>
<path d="M56.5215 39.1292L99.9998 49.9986V46.9248L68.8163 39.1292H56.5215Z" fill="#0052B4"/>
<path d="M88.4187 49.9985L56.5215 42.0234V49.9985H88.4187Z" fill="#0052B4"/>
<path d="M56.5215 39.1292L99.9998 49.9986V46.9248L68.8163 39.1292H56.5215Z" fill="#F0F0F0"/>
<path d="M56.5215 39.1292L99.9998 49.9986V46.9248L68.8163 39.1292H56.5215Z" fill="#D80027"/>
<path d="M19.6052 39.1289L0 44.03V39.1289H19.6052Z" fill="#0052B4"/>
<path d="M43.4785 40.511V49.9983H5.53223L43.4785 40.511Z" fill="#0052B4"/>
<path d="M31.1833 39.1292L0 46.9248V49.9986L43.4783 39.1292H31.1833Z" fill="#D80027"/>
<path d="M25.6544 27.5353L0 21.1218V27.5353H25.6544Z" fill="#0052B4"/>
<path d="M43.4783 27.5352L0 16.6658V19.7394L31.1835 27.5352H43.4783Z" fill="#0052B4"/>
<path d="M11.5811 16.6658L43.4783 24.6407V16.6658H11.5811Z" fill="#0052B4"/>
<path d="M43.4783 27.5352L0 16.6658V19.7394L31.1835 27.5352H43.4783Z" fill="#F0F0F0"/>
<path d="M43.4783 27.5352L0 16.6658V19.7394L31.1835 27.5352H43.4783Z" fill="#D80027"/>
<path d="M80.3945 27.5355L99.9997 22.6343V27.5355H80.3945Z" fill="#0052B4"/>
<path d="M56.5215 26.1532V16.6663H94.4677L56.5215 26.1532Z" fill="#0052B4"/>
<path d="M68.8165 27.5352L99.9998 19.7396V16.6658L56.5215 27.5352H68.8165Z" fill="#D80027"/>
<path d="M53.1239 16.6667H46.876V49.9993H53.1239V16.6667Z" fill="#D80027"/>
<path d="M100 53.0927V57.4535C99.1348 57.5993 97.4891 58.5317 96.263 59.2296C94.124 60.4448 92.1022 61.5926 90.1695 61.5926C88.2348 61.5926 86.2152 60.4448 84.0737 59.2296C82.739 58.4709 80.9107 57.4339 80.1259 57.4339C79.3412 57.4339 77.5128 58.4709 76.1781 59.2296C74.039 60.4448 72.0173 61.5926 70.0845 61.5926C68.1518 61.5926 66.1302 60.4448 63.9888 59.2296C62.6541 58.4709 60.8257 57.4339 60.041 57.4339C59.2584 57.4339 57.43 58.4709 56.0953 59.2296C53.9541 60.4448 51.9323 61.5926 49.9996 61.5926C48.0669 61.5926 46.0453 60.4448 43.9039 59.2296C42.5692 58.4709 40.7408 57.4339 39.9582 57.4339C39.1735 57.4339 37.3451 58.4709 36.0104 59.2296C33.8692 60.4448 31.8474 61.5926 29.9147 61.5926C27.9822 61.5926 25.9604 60.4448 23.8211 59.2296C22.4864 58.4709 20.658 57.4339 19.8733 57.4339C19.0886 57.4339 17.2602 58.4709 15.9255 59.2296C13.7843 60.4448 11.7646 61.5926 9.82975 61.5926C7.89722 61.5926 5.87545 60.4448 3.7362 59.2296C2.51093 58.5319 0.865156 57.5993 0 57.4535V53.0927C1.86741 53.1688 3.82171 54.2775 5.88487 55.4492C7.21957 56.2057 9.04795 57.2449 9.83054 57.2449C10.6153 57.2449 12.4437 56.2057 13.7784 55.4492C15.9196 54.234 17.9414 53.0862 19.8741 53.0862C21.8068 53.0862 23.8284 54.234 25.9676 55.4492C27.3023 56.2057 29.1307 57.2449 29.9155 57.2449C30.7002 57.2449 32.5286 56.2057 33.8633 55.4492C36.0045 54.234 38.0241 53.0862 39.959 53.0862C41.8915 53.0862 43.9133 54.234 46.0526 55.4492C47.3873 56.2057 49.2157 57.2449 50.0004 57.2449C50.7851 57.2449 52.6135 56.2057 53.9482 55.4492C56.0873 54.234 58.109 53.0862 60.0418 53.0862C61.9765 53.0862 63.9961 54.234 66.1375 55.4492C67.4722 56.2057 69.3006 57.2449 70.0853 57.2449C70.8701 57.2449 72.6984 56.2057 74.0331 55.4492C76.1722 54.234 78.194 53.0862 80.1267 53.0862C82.0592 53.0862 84.081 54.234 86.2224 55.4492C87.5571 56.2057 89.3855 57.2449 90.1702 57.2449C90.9528 57.2449 92.7812 56.2057 94.1159 55.4492C96.1783 54.2775 98.1326 53.1688 100 53.0927Z" fill="#0052B4"/>
<path d="M99.9998 63.9623V68.3232C99.1347 68.4689 97.4889 69.4013 96.2628 70.0992C94.1238 71.3144 92.102 72.4622 90.1693 72.4622C88.2346 72.4622 86.215 71.3144 84.0736 70.0992C82.7388 69.3405 80.9105 68.3036 80.1257 68.3036C79.341 68.3036 77.5126 69.3405 76.1779 70.0992C74.0388 71.3144 72.0171 72.4622 70.0843 72.4622C68.1516 72.4622 66.13 71.3144 63.9886 70.0992C62.6539 69.3405 60.8255 68.3036 60.0408 68.3036C59.2582 68.3036 57.4298 69.3405 56.0951 70.0992C53.9539 71.3144 51.9321 72.4622 49.9994 72.4622C48.0667 72.4622 46.0451 71.3144 43.9037 70.0992C42.569 69.3405 40.7406 68.3036 39.958 68.3036C39.1733 68.3036 37.3449 69.3405 36.0102 70.0992C33.869 71.3144 31.8472 72.4622 29.9145 72.4622C27.982 72.4622 25.9602 71.3144 23.8209 70.0992C22.4862 69.3405 20.6578 68.3036 19.8731 68.3036C19.0884 68.3036 17.26 69.3405 15.9253 70.0992C13.7841 71.3144 11.7644 72.4622 9.82956 72.4622C7.89703 72.4622 5.87526 71.3144 3.736 70.0992C2.50996 69.4013 0.86418 68.4687 -0.000976562 68.3232V63.9623C1.86644 64.0384 3.82074 65.1471 5.88389 66.3189C7.2186 67.0754 9.04698 68.1145 9.82956 68.1145C10.6143 68.1145 12.4427 67.0754 13.7774 66.3189C15.9186 65.1036 17.9404 63.9558 19.8731 63.9558C21.8058 63.9558 23.8274 65.1036 25.9667 66.3189C27.3014 67.0754 29.1297 68.1145 29.9145 68.1145C30.6992 68.1145 32.5276 67.0754 33.8623 66.3189C36.0035 65.1036 38.0231 63.9558 39.958 63.9558C41.8906 63.9558 43.9123 65.1036 46.0516 66.3189C47.3863 67.0754 49.2147 68.1145 49.9994 68.1145C50.7842 68.1145 52.6125 67.0754 53.9472 66.3189C56.0863 65.1036 58.1081 63.9558 60.0408 63.9558C61.9755 63.9558 63.9951 65.1036 66.1365 66.3189C67.4712 67.0754 69.2996 68.1145 70.0843 68.1145C70.8691 68.1145 72.6975 67.0754 74.0322 66.3189C76.1712 65.1036 78.193 63.9558 80.1257 63.9558C82.0583 63.9558 84.08 65.1036 86.2214 66.3189C87.5562 67.0754 89.3845 68.1145 90.1693 68.1145C90.9519 68.1145 92.7802 67.0754 94.1149 66.3189C96.1781 65.1469 98.1324 64.0382 99.9998 63.9623Z" fill="#0052B4"/>
<path d="M99.9998 74.8319V79.1928C99.1347 79.3385 97.4889 80.271 96.2628 80.9688C94.1238 82.1841 92.102 83.3319 90.1693 83.3319C88.2346 83.3319 86.215 82.1841 84.0736 80.9688C82.7388 80.2102 80.9105 79.1732 80.1257 79.1732C79.341 79.1732 77.5126 80.2102 76.1779 80.9688C74.0388 82.1841 72.0171 83.3319 70.0843 83.3319C68.1516 83.3319 66.13 82.1841 63.9886 80.9688C62.6539 80.2102 60.8255 79.1732 60.0408 79.1732C59.2582 79.1732 57.4298 80.2102 56.0951 80.9688C53.9539 82.1841 51.9321 83.3319 49.9994 83.3319C48.0667 83.3319 46.0451 82.1841 43.9037 80.9688C42.569 80.2102 40.7406 79.1732 39.958 79.1732C39.1733 79.1732 37.3449 80.2102 36.0102 80.9688C33.869 82.1841 31.8472 83.3319 29.9145 83.3319C27.982 83.3319 25.9602 82.1841 23.8209 80.9688C22.4862 80.2102 20.6578 79.1732 19.8731 79.1732C19.0884 79.1732 17.26 80.2102 15.9253 80.9688C13.7841 82.1841 11.7644 83.3319 9.82956 83.3319C7.89703 83.3319 5.87526 82.1841 3.736 80.9688C2.50996 80.271 0.86418 79.3383 -0.000976562 79.1928V74.8319C1.86644 74.908 3.82074 76.0168 5.88389 77.1885C7.2186 77.945 9.04698 78.9841 9.82956 78.9841C10.6143 78.9841 12.4427 77.945 13.7774 77.1885C15.9186 75.9732 17.9404 74.8254 19.8731 74.8254C21.8058 74.8254 23.8274 75.9732 25.9667 77.1885C27.3014 77.945 29.1297 78.9841 29.9145 78.9841C30.6992 78.9841 32.5276 77.945 33.8623 77.1885C36.0035 75.9732 38.0231 74.8254 39.958 74.8254C41.8906 74.8254 43.9123 75.9732 46.0516 77.1885C47.3863 77.945 49.2147 78.9841 49.9994 78.9841C50.7842 78.9841 52.6125 77.945 53.9472 77.1885C56.0863 75.9732 58.1081 74.8254 60.0408 74.8254C61.9755 74.8254 63.9951 75.9732 66.1365 77.1885C67.4712 77.945 69.2996 78.9841 70.0843 78.9841C70.8691 78.9841 72.6975 77.945 74.0322 77.1885C76.1712 75.9732 78.193 74.8254 80.1257 74.8254C82.0583 74.8254 84.08 75.9732 86.2214 77.1885C87.5562 77.945 89.3845 78.9841 90.1693 78.9841C90.9519 78.9841 92.7802 77.945 94.1149 77.1885C96.1781 76.0168 98.1324 74.908 99.9998 74.8319Z" fill="#0052B4"/>
<path d="M60.1088 76.1116L63.8275 69.3479L56.2435 70.7983L55.2826 63.1372L50.0003 68.7718L44.7181 63.1372L43.7569 70.7983L36.1733 69.3479L39.8922 76.1114L32.9082 79.3967L39.892 82.6814L39.5343 83.3326H60.4661L60.1084 82.6816L67.0924 79.3967L60.1088 76.1116Z" fill="#FFDA44"/>
</g>
<defs>
<clipPath id="clip0_1124_5619">
<rect width="100" height="100" fill="white"/>
</clipPath>
</defs>
</svg>
