<svg width="101" height="101" viewBox="0 0 101 101" fill="none" xmlns="http://www.w3.org/2000/svg">
<path d="M101 16.8335H0V84.1675H101V16.8335Z" fill="#F0F0F0"/>
<path d="M91.0704 55.8933C90.2782 55.8933 88.4314 54.8448 87.0833 54.0791C84.9217 52.8515 82.88 51.6921 80.9278 51.6921C78.9757 51.6921 76.934 52.8515 74.7724 54.0791C73.424 54.8446 71.5774 55.8933 70.7852 55.8933C69.993 55.8933 68.1462 54.8448 66.7983 54.0791C64.6367 52.8515 62.5949 51.6921 60.6428 51.6921C58.6907 51.6921 56.649 52.8515 54.4873 54.0791C53.139 54.8446 51.2924 55.8933 50.5002 55.8933C49.708 55.8933 47.8612 54.8448 46.5131 54.0791C44.3514 52.8515 42.3097 51.6921 40.3576 51.6921C38.4054 51.6921 36.3637 52.8515 34.2021 54.0791C32.854 54.8446 31.0074 55.8933 30.2152 55.8933C29.423 55.8933 27.5762 54.8448 26.228 54.0791C24.0664 52.8515 22.0247 51.6921 20.0726 51.6921C18.1204 51.6921 16.0787 52.8515 13.9171 54.0791C12.5688 54.8446 10.7222 55.8933 9.92996 55.8933C9.13774 55.8933 7.29094 54.8448 5.94302 54.0791C3.8595 52.8961 1.88783 51.7795 0 51.6998V56.1052C0.875268 56.2523 2.53427 57.1933 3.77389 57.8975C5.93553 59.1251 7.97722 60.2844 9.92937 60.2844C11.8815 60.2844 13.9232 59.1251 16.0848 57.8975C17.4332 57.1319 19.2798 56.0833 20.072 56.0833C20.8642 56.0833 22.711 57.1317 24.0591 57.8975C26.2207 59.1251 28.2624 60.2844 30.2146 60.2844C32.1667 60.2844 34.2084 59.1251 36.3701 57.8975C37.7182 57.1319 39.5648 56.0833 40.357 56.0833C41.1492 56.0833 42.996 57.1317 44.3441 57.8975C46.5058 59.1251 48.5475 60.2844 50.4996 60.2844C52.4517 60.2844 54.4934 59.1251 56.6551 57.8975C58.0034 57.1319 59.85 56.0833 60.6422 56.0833C61.4344 56.0833 63.2812 57.1317 64.6292 57.8975C66.7908 59.1251 68.8325 60.2844 70.7846 60.2844C72.7368 60.2844 74.7785 59.1251 76.9401 57.8975C78.2884 57.1319 80.135 56.0833 80.9272 56.0833C81.7195 56.0833 83.5663 57.1317 84.9144 57.8975C87.076 59.1251 89.1177 60.2844 91.0698 60.2844C93.022 60.2844 95.0637 59.1251 97.2253 57.8975C98.4649 57.1933 100.124 56.2523 100.999 56.1052V51.6998C99.1114 51.7795 97.1397 52.8961 95.0566 54.0791C93.7093 54.8446 91.8629 55.8933 91.0704 55.8933Z" fill="#0052B4"/>
<path d="M0 23.1706C0.875268 23.3177 2.53427 24.2587 3.77389 24.9629C5.93553 26.1905 7.97722 27.3498 9.92937 27.3498C11.8815 27.3498 13.9232 26.1905 16.0848 24.9629C17.4332 24.1973 19.2798 23.1487 20.072 23.1487C20.8642 23.1487 22.711 24.1971 24.0591 24.9629C26.2207 26.1905 28.2624 27.3498 30.2146 27.3498C32.1667 27.3498 34.2084 26.1905 36.3701 24.9629C37.7182 24.1973 39.5648 23.1487 40.357 23.1487C41.1492 23.1487 42.996 24.1971 44.3441 24.9629C46.5058 26.1905 48.5475 27.3498 50.4996 27.3498C52.4517 27.3498 54.4934 26.1905 56.6551 24.9629C58.0034 24.1973 59.85 23.1487 60.6422 23.1487C61.4344 23.1487 63.2812 24.1971 64.6292 24.9629C66.7908 26.1905 68.8325 27.3498 70.7846 27.3498C72.7368 27.3498 74.7785 26.1905 76.9401 24.9629C78.2884 24.1973 80.135 23.1487 80.9272 23.1487C81.7195 23.1487 83.5663 24.1971 84.9144 24.9629C87.076 26.1905 89.1177 27.3498 91.0698 27.3498C93.022 27.3498 95.0637 26.1905 97.2253 24.9629C98.4649 24.2587 100.124 23.3177 100.999 23.1706V18.765C99.1114 18.8447 97.1397 19.9612 95.0566 21.1442C93.7085 21.9098 91.8619 22.9585 91.0696 22.9585C90.2774 22.9585 88.4306 21.91 87.0825 21.1442C84.9209 19.9167 82.8792 18.7573 80.927 18.7573C78.9749 18.7573 76.9332 19.9167 74.7716 21.1442C73.4233 21.9098 71.5767 22.9585 70.7844 22.9585C69.9922 22.9585 68.1454 21.91 66.7975 21.1442C64.6359 19.9167 62.5942 18.7573 60.642 18.7573C58.6899 18.7573 56.6482 19.9167 54.4865 21.1442C53.1382 21.9098 51.2916 22.9585 50.4994 22.9585C49.7072 22.9585 47.8604 21.91 46.5123 21.1442C44.3506 19.9167 42.3089 18.7573 40.3568 18.7573C38.4047 18.7573 36.363 19.9167 34.2013 21.1442C32.8532 21.9098 31.0066 22.9585 30.2144 22.9585C29.4222 22.9585 27.5754 21.91 26.2273 21.1442C24.0656 19.9167 22.0239 18.7573 20.0718 18.7573C18.1196 18.7573 16.0779 19.9167 13.9163 21.1442C12.568 21.9098 10.7214 22.9585 9.92917 22.9585C9.13695 22.9585 7.29015 21.91 5.94223 21.1442C3.8595 19.9612 1.88783 18.8447 0 18.765V23.1706Z" fill="#0052B4"/>
<path d="M91.0704 33.9368C90.2782 33.9368 88.4314 32.8883 87.0833 32.1225C84.9217 30.8949 82.88 29.7356 80.9278 29.7356C78.9757 29.7356 76.934 30.8949 74.7724 32.1225C73.424 32.8881 71.5774 33.9368 70.7852 33.9368C69.993 33.9368 68.1462 32.8883 66.7983 32.1225C64.6367 30.8949 62.5949 29.7356 60.6428 29.7356C58.6907 29.7356 56.649 30.8949 54.4873 32.1225C53.139 32.8881 51.2924 33.9368 50.5002 33.9368C49.708 33.9368 47.8612 32.8883 46.5131 32.1225C44.3514 30.8949 42.3097 29.7356 40.3576 29.7356C38.4054 29.7356 36.3637 30.8949 34.2021 32.1225C32.854 32.8881 31.0074 33.9368 30.2152 33.9368C29.423 33.9368 27.5762 32.8883 26.228 32.1225C24.0664 30.8949 22.0247 29.7356 20.0726 29.7356C18.1204 29.7356 16.0787 30.8949 13.9171 32.1225C12.5688 32.8881 10.7222 33.9368 9.92996 33.9368C9.13774 33.9368 7.29094 32.8883 5.94302 32.1225C3.8595 30.9395 1.88783 29.823 0 29.7433V34.1486C0.875268 34.2958 2.53427 35.2367 3.77389 35.941C5.93553 37.1686 7.97722 38.3279 9.92937 38.3279C11.8815 38.3279 13.9232 37.1686 16.0848 35.941C17.4332 35.1754 19.2798 34.1267 20.072 34.1267C20.8642 34.1267 22.711 35.1752 24.0591 35.941C26.2207 37.1686 28.2624 38.3279 30.2146 38.3279C32.1667 38.3279 34.2084 37.1686 36.3701 35.941C37.7182 35.1754 39.5648 34.1267 40.357 34.1267C41.1492 34.1267 42.996 35.1752 44.3441 35.941C46.5058 37.1686 48.5475 38.3279 50.4996 38.3279C52.4517 38.3279 54.4934 37.1686 56.6551 35.941C58.0034 35.1754 59.85 34.1267 60.6422 34.1267C61.4344 34.1267 63.2812 35.1752 64.6292 35.941C66.7908 37.1686 68.8325 38.3279 70.7846 38.3279C72.7368 38.3279 74.7785 37.1686 76.9401 35.941C78.2884 35.1754 80.135 34.1267 80.9272 34.1267C81.7195 34.1267 83.5663 35.1752 84.9144 35.941C87.076 37.1686 89.1177 38.3279 91.0698 38.3279C93.022 38.3279 95.0637 37.1686 97.2253 35.941C98.4649 35.2367 100.124 34.2958 100.999 34.1486V29.7433C99.1114 29.823 97.1397 30.9395 95.0566 32.1225C93.7093 32.8883 91.8629 33.9368 91.0704 33.9368Z" fill="#0052B4"/>
<path d="M101 40.7216C99.1122 40.8013 97.1405 41.9178 95.0574 43.1008C93.7093 43.8664 91.8627 44.915 91.0704 44.915C90.2782 44.915 88.4314 43.8666 87.0833 43.1008C84.9217 41.8732 82.88 40.7139 80.9278 40.7139C78.9757 40.7139 76.934 41.8732 74.7724 43.1008C73.424 43.8664 71.5774 44.915 70.7852 44.915C69.993 44.915 68.1462 43.8666 66.7983 43.1008C64.6367 41.8732 62.5949 40.7139 60.6428 40.7139C58.6907 40.7139 56.649 41.8732 54.4873 43.1008C53.139 43.8664 51.2924 44.915 50.5002 44.915C49.708 44.915 47.8612 43.8666 46.5131 43.1008C44.3514 41.8732 42.3097 40.7139 40.3576 40.7139C38.4054 40.7139 36.3637 41.8732 34.2021 43.1008C32.854 43.8664 31.0074 44.915 30.2152 44.915C29.423 44.915 27.5762 43.8666 26.228 43.1008C24.0664 41.8732 22.0247 40.7139 20.0726 40.7139C18.1204 40.7139 16.0787 41.8732 13.9171 43.1008C12.5688 43.8664 10.7222 44.915 9.92996 44.915C9.13774 44.915 7.29094 43.8666 5.94302 43.1008C3.8595 41.9176 1.88783 40.8013 0 40.7216V45.1269C0.875268 45.2741 2.53427 46.215 3.77389 46.9193C5.93553 48.1468 7.97722 49.3062 9.92937 49.3062C11.8815 49.3062 13.9232 48.1468 16.0848 46.9193C17.4332 46.1537 19.2798 45.105 20.072 45.105C20.8642 45.105 22.711 46.1535 24.0591 46.9193C26.2207 48.1468 28.2624 49.3062 30.2146 49.3062C32.1667 49.3062 34.2084 48.1468 36.3701 46.9193C37.7182 46.1537 39.5648 45.105 40.357 45.105C41.1492 45.105 42.996 46.1535 44.3441 46.9193C46.5058 48.1468 48.5475 49.3062 50.4996 49.3062C52.4517 49.3062 54.4934 48.1468 56.6551 46.9193C58.0034 46.1537 59.85 45.105 60.6422 45.105C61.4344 45.105 63.2812 46.1535 64.6292 46.9193C66.7908 48.1468 68.8325 49.3062 70.7846 49.3062C72.7368 49.3062 74.7785 48.1468 76.9401 46.9193C78.2884 46.1537 80.135 45.105 80.9272 45.105C81.7195 45.105 83.5663 46.1535 84.9144 46.9193C87.076 48.1468 89.1177 49.3062 91.0698 49.3062C93.022 49.3062 95.0637 48.1468 97.2253 46.9193C98.4649 46.215 100.124 45.2741 100.999 45.1269V40.7216H101Z" fill="#0052B4"/>
<path d="M91.0704 66.8716C90.2782 66.8716 88.4314 65.8231 87.0833 65.0573C84.9217 63.8297 82.88 62.6704 80.9278 62.6704C78.9757 62.6704 76.934 63.8297 74.7724 65.0573C73.424 65.8229 71.5774 66.8716 70.7852 66.8716C69.993 66.8716 68.1462 65.8231 66.7983 65.0573C64.6367 63.8297 62.5949 62.6704 60.6428 62.6704C58.6907 62.6704 56.649 63.8297 54.4873 65.0573C53.139 65.8229 51.2924 66.8716 50.5002 66.8716C49.708 66.8716 47.8612 65.8231 46.5131 65.0573C44.3514 63.8297 42.3097 62.6704 40.3576 62.6704C38.4054 62.6704 36.3637 63.8297 34.2021 65.0573C32.854 65.8229 31.0074 66.8716 30.2152 66.8716C29.423 66.8716 27.5762 65.8231 26.228 65.0573C24.0664 63.8297 22.0247 62.6704 20.0726 62.6704C18.1204 62.6704 16.0787 63.8297 13.9171 65.0573C12.5688 65.8229 10.7222 66.8716 9.92996 66.8716C9.13774 66.8716 7.29094 65.8231 5.94302 65.0573C3.8595 63.8743 1.88783 62.7578 0 62.6781V67.0834C0.875268 67.2306 2.53427 68.1716 3.77389 68.8758C5.93553 70.1034 7.97722 71.2627 9.92937 71.2627C11.8815 71.2627 13.9232 70.1034 16.0848 68.8758C17.4332 68.1102 19.2798 67.0615 20.072 67.0615C20.8642 67.0615 22.711 68.11 24.0591 68.8758C26.2207 70.1034 28.2624 71.2627 30.2146 71.2627C32.1667 71.2627 34.2084 70.1034 36.3701 68.8758C37.7182 68.1102 39.5648 67.0615 40.357 67.0615C41.1492 67.0615 42.996 68.11 44.3441 68.8758C46.5058 70.1034 48.5475 71.2627 50.4996 71.2627C52.4517 71.2627 54.4934 70.1034 56.6551 68.8758C58.0034 68.1102 59.85 67.0615 60.6422 67.0615C61.4344 67.0615 63.2812 68.11 64.6292 68.8758C66.7908 70.1034 68.8325 71.2627 70.7846 71.2627C72.7368 71.2627 74.7785 70.1034 76.9401 68.8758C78.2884 68.1102 80.135 67.0615 80.9272 67.0615C81.7195 67.0615 83.5663 68.11 84.9144 68.8758C87.076 70.1034 89.1177 71.2627 91.0698 71.2627C93.022 71.2627 95.0637 70.1034 97.2253 68.8758C98.4649 68.1716 100.124 67.2306 100.999 67.0834V62.6781C99.1114 62.7578 97.1397 63.8743 95.0566 65.0573C93.7093 65.8229 91.8629 66.8716 91.0704 66.8716Z" fill="#0052B4"/>
<path d="M101 73.6564C99.1122 73.7361 97.1405 74.8526 95.0574 76.0356C93.7093 76.8012 91.8627 77.8498 91.0704 77.8498C90.2782 77.8498 88.4314 76.8014 87.0833 76.0356C84.9217 74.808 82.88 73.6487 80.9278 73.6487C78.9757 73.6487 76.934 74.808 74.7724 76.0356C73.424 76.8012 71.5774 77.8498 70.7852 77.8498C69.993 77.8498 68.1462 76.8014 66.7983 76.0356C64.6367 74.808 62.5949 73.6487 60.6428 73.6487C58.6907 73.6487 56.649 74.808 54.4873 76.0356C53.139 76.8012 51.2924 77.8498 50.5002 77.8498C49.708 77.8498 47.8612 76.8014 46.5131 76.0356C44.3514 74.808 42.3097 73.6487 40.3576 73.6487C38.4054 73.6487 36.3637 74.808 34.2021 76.0356C32.854 76.8012 31.0074 77.8498 30.2152 77.8498C29.423 77.8498 27.5762 76.8014 26.228 76.0356C24.0664 74.808 22.0247 73.6487 20.0726 73.6487C18.1204 73.6487 16.0787 74.808 13.9171 76.0356C12.5688 76.8012 10.7222 77.8498 9.92996 77.8498C9.13774 77.8498 7.29094 76.8014 5.94302 76.0356C3.8595 74.8526 1.88783 73.7361 0 73.6564V78.0617C0.875268 78.2089 2.53427 79.1498 3.77389 79.8541C5.93553 81.0817 7.97722 82.241 9.92937 82.241C11.8815 82.241 13.9232 81.0817 16.0848 79.8541C17.4332 79.0885 19.2798 78.0398 20.072 78.0398C20.8642 78.0398 22.711 79.0883 24.0591 79.8541C26.2207 81.0817 28.2624 82.241 30.2146 82.241C32.1667 82.241 34.2084 81.0817 36.3701 79.8541C37.7182 79.0885 39.5648 78.0398 40.357 78.0398C41.1492 78.0398 42.996 79.0883 44.3441 79.8541C46.5058 81.0817 48.5475 82.241 50.4996 82.241C52.4517 82.241 54.4934 81.0817 56.6551 79.8541C58.0034 79.0885 59.85 78.0398 60.6422 78.0398C61.4344 78.0398 63.2812 79.0883 64.6292 79.8541C66.7908 81.0817 68.8325 82.241 70.7846 82.241C72.7368 82.241 74.7785 81.0817 76.9401 79.8541C78.2884 79.0885 80.135 78.0398 80.9272 78.0398C81.7195 78.0398 83.5663 79.0883 84.9144 79.8541C87.076 81.0817 89.1177 82.241 91.0698 82.241C93.022 82.241 95.0637 81.0817 97.2253 79.8541C98.4649 79.1498 100.124 78.2089 100.999 78.0617V73.6564H101Z" fill="#0052B4"/>
<path d="M50.4102 50.4994H50.5001C50.5001 50.469 50.5001 50.4396 50.5001 50.4094C50.4701 50.4392 50.4401 50.4692 50.4102 50.4994Z" fill="#F0F0F0"/>
<path d="M69.1631 33.3003H82.3369L75.75 39.8872L69.1631 33.3003Z" fill="#6DA544"/>
<path d="M77.2126 38.4231H74.2852V46.4739H77.2126V38.4231Z" fill="#A2001D"/>
<path d="M77.2126 59.6484H74.2852V67.6992H77.2126V59.6484Z" fill="#A2001D"/>
<path d="M84.5327 55.2566C84.5327 52.8312 82.5667 50.8652 80.1414 50.8652C79.0164 50.8652 77.991 51.2886 77.2139 51.9841V49.4013H78.6779V46.4739H77.2139V45.01H74.2865V46.4739H72.8226V49.4013H74.2865V51.9841C73.5095 51.2886 72.4839 50.8652 71.3591 50.8652C68.9337 50.8652 66.9678 52.8312 66.9678 55.2566C66.9678 56.5568 67.5333 57.7248 68.4317 58.529V61.1118H83.0694V58.5288C83.9671 57.7248 84.5327 56.5568 84.5327 55.2566Z" fill="#FFDA44"/>
<path d="M80.1409 53.7927C79.6791 53.7927 79.3558 53.9953 79.1658 54.1654L77.2133 55.9133H74.2859L72.3333 54.1654C72.1436 53.9955 71.8202 53.7927 71.3584 53.7927C70.5512 53.7927 69.8945 54.4494 69.8945 55.2566C69.8945 55.8252 70.2011 56.1844 70.3838 56.3481L71.3584 57.2208V58.1841H80.1411V57.2206L81.1158 56.3479C81.2985 56.1844 81.605 55.825 81.605 55.2564C81.6046 54.4494 80.9479 53.7927 80.1409 53.7927Z" fill="#D80027"/>
<path d="M50.5 16.8335H0V50.4994H50.5V16.8335Z" fill="#F0F0F0"/>
<path d="M28.4062 16.8325H22.0938V30.5097H0V36.8222H22.0938V50.4995H28.4062V36.8222H50.5V30.5097H28.4062V16.8325Z" fill="#D80027"/>
<path d="M0 16.8325V19.8077L11.3185 27.3535H15.7812L0 16.8325Z" fill="#D80027"/>
<path d="M0 21.2949V27.3533H9.08783L0 21.2949Z" fill="#2E52B2"/>
<path d="M18.9376 16.8328V26.4816L4.46387 16.8328H18.9376Z" fill="#2E52B2"/>
<path d="M50.5 16.8325V19.8077L39.1815 27.3535H34.7188L50.5 16.8325Z" fill="#D80027"/>
<path d="M50.4999 21.2949V27.3533H41.4121L50.4999 21.2949Z" fill="#2E52B2"/>
<path d="M31.5625 16.8328V26.4816L46.0363 16.8328H31.5625Z" fill="#2E52B2"/>
<path d="M0 16.8325V19.8077L11.3185 27.3535H15.7812L0 16.8325Z" fill="#D80027"/>
<path d="M0 21.2949V27.3533H9.08783L0 21.2949Z" fill="#2E52B2"/>
<path d="M18.9376 16.8328V26.4816L4.46387 16.8328H18.9376Z" fill="#2E52B2"/>
<path d="M50.5 16.8325V19.8077L39.1815 27.3535H34.7188L50.5 16.8325Z" fill="#D80027"/>
<path d="M50.4999 21.2949V27.3533H41.4121L50.4999 21.2949Z" fill="#2E52B2"/>
<path d="M31.5625 16.8328V26.4816L46.0363 16.8328H31.5625Z" fill="#2E52B2"/>
<path d="M0 50.4995V47.5243L11.3185 39.9785H15.7812L0 50.4995Z" fill="#D80027"/>
<path d="M0 46.0371V39.9785H9.08783L0 46.0371Z" fill="#2E52B2"/>
<path d="M18.9376 50.499V40.8503L4.46387 50.499H18.9376Z" fill="#2E52B2"/>
<path d="M50.5 50.4995V47.5243L39.1815 39.9785H34.7188L50.5 50.4995Z" fill="#D80027"/>
<path d="M50.4999 46.0371V39.9785H41.4121L50.4999 46.0371Z" fill="#2E52B2"/>
<path d="M31.5625 50.499V40.8503L46.0363 50.499H31.5625Z" fill="#2E52B2"/>
</svg>
