<svg width="101" height="101" viewBox="0 0 101 101" fill="none" xmlns="http://www.w3.org/2000/svg">
<path d="M101 16.8333H0V84.1673H101V16.8333Z" fill="#0052B4"/>
<path d="M0 16.8328H101V84.1658" fill="#6DA544"/>
<path d="M50.5004 59.2819C55.351 59.2819 59.2831 55.3497 59.2831 50.4992C59.2831 45.6487 55.351 41.7166 50.5004 41.7166C45.6499 41.7166 41.7178 45.6487 41.7178 50.4992C41.7178 55.3497 45.6499 59.2819 50.5004 59.2819Z" fill="#FFDA44"/>
<path d="M25.1659 69.5283L26.0899 71.4601L28.176 70.978L27.2417 72.9047L28.9193 74.2353L26.8306 74.7058L26.8363 76.8471L25.1659 75.5074L23.4954 76.8471L23.5012 74.7058L21.4121 74.2353L23.0901 72.9047L22.1558 70.978L24.2419 71.4601L25.1659 69.5283Z" fill="#F0F0F0"/>
<path d="M19.1227 53.4268L20.0465 55.3586L22.1326 54.8765L21.1985 56.8034L22.8761 58.1337L20.7874 58.6044L20.7932 60.7457L19.1227 59.4061L17.4521 60.7457L17.4578 58.6044L15.3691 58.1337L17.0469 56.8034L16.1126 54.8765L18.1987 55.3586L19.1227 53.4268Z" fill="#F0F0F0"/>
<path d="M25.1657 40.2529L26.0897 42.1846L28.1758 41.7024L27.2415 43.6293L28.9191 44.9597L26.8304 45.4304L26.8361 47.5719L25.1657 46.2321L23.4952 47.5719L23.501 45.4304L21.4121 44.9597L23.0897 43.6293L22.1556 41.7024L24.2417 42.1846L25.1657 40.2529Z" fill="#F0F0F0"/>
<path d="M32.6725 50.4993L33.5965 52.4311L35.6828 51.9486L34.7485 53.8757L36.4259 55.206L34.3372 55.6769L34.343 57.818L32.6725 56.4784L31.0023 57.818L31.008 55.6769L28.9189 55.206L30.5967 53.8757L29.6624 51.9486L31.7487 52.4311L32.6725 50.4993Z" fill="#F0F0F0"/>
<path d="M27.3047 59.282L28.0314 61.5184H30.383L28.4806 62.9006L29.2073 65.137L27.3047 63.755L25.4025 65.137L26.1292 62.9006L24.2266 61.5184H26.5782L27.3047 59.282Z" fill="#F0F0F0"/>
<path d="M50.5 56.3545H53.4274C53.4274 56.3545 54.696 54.1104 53.4274 51.9632L56.3548 49.0358L54.8911 46.1082H53.4272C53.4272 46.1082 52.6953 48.3037 49.7677 48.3037C46.8401 48.3037 46.1084 46.1082 46.1084 46.1082H44.6447L46.1084 49.0356L44.6445 51.963L46.1084 53.4269C46.1084 53.4269 47.5723 50.4995 50.4998 51.963C50.4998 51.963 51.7443 53.7928 50.5 56.3545Z" fill="#6DA544"/>
<path d="M78.2058 39.6146C78.275 39.255 78.3115 38.884 78.3115 38.5042C78.3115 35.9003 76.6115 33.6947 74.261 32.9338C74.9793 34.3936 75.3841 36.0354 75.3841 37.7722C75.3841 38.3581 75.3369 38.9325 75.2483 39.4935C74.8946 38.9238 74.4403 38.403 73.8852 37.9612C71.794 36.2972 68.9364 36.2532 66.8237 37.6546C68.4547 38.0107 70.0321 38.7346 71.4269 39.8446C72.519 40.7136 73.4015 41.8891 74.077 43.0238L65.1377 45.823C73.9204 47.2869 81.2391 41.4316 81.2391 41.4316C80.4283 39.8099 79.1686 39.5367 78.2058 39.6146Z" fill="#FFDA44"/>
</svg>
