<svg width="101" height="101" viewBox="0 0 101 101" fill="none" xmlns="http://www.w3.org/2000/svg">
<path d="M101 16.8328H0V84.1668H101V16.8328Z" fill="#F0F0F0"/>
<path d="M62.2224 45.3478C62.2224 38.2273 56.4502 32.4551 49.3297 32.4551C44.0755 32.4551 39.5581 35.5995 37.55 40.1082L35.9596 45.8729L37.4235 47.3368L34.4961 53.192L37.4235 54.6559L35.9596 56.1199V57.5838L37.4235 59.0477V61.9751L38.8874 63.439L43.2788 61.9751C43.2788 61.9751 43.2788 63.439 44.7427 64.9025C46.2066 66.3662 47.6703 69.294 47.6703 69.294C47.6703 69.294 52.0616 70.758 54.989 66.3666C57.9165 61.9753 60.8443 60.5114 60.8443 60.5114L58.0224 54.8676C60.6026 52.5101 62.2224 49.1187 62.2224 45.3478Z" fill="black"/>
<path d="M63.2736 50.2783C69.2215 49.2748 70.2126 37.6277 70.2126 37.6277H62.0156C66.2604 47.8741 61.8176 48.5633 61.8176 48.5633C61.2155 48.1155 39.6747 37.911 38.9916 37.6514C38.8271 37.8715 38.2216 38.4497 37.4854 40.2501C36.7493 42.0506 36.5684 43.6703 36.5684 43.6703C36.9134 43.895 59.7901 51.8831 60.3947 51.9498C61.5947 52.7345 63.0714 55.0806 62.246 62.0373L70.1359 59.8136C70.1355 59.8136 67.458 52.6905 63.2736 50.2783Z" fill="#ACABB1"/>
</svg>
