<svg width="101" height="101" viewBox="0 0 101 101" fill="none" xmlns="http://www.w3.org/2000/svg">
<path d="M101 16.8333H0V84.1673H101V16.8333Z" fill="#F0F0F0"/>
<path d="M16.833 16.8328L50.4995 50.4993V16.8328H16.833Z" fill="black"/>
<path d="M0 84.1658H16.8335L50.5 50.4993H0V84.1658Z" fill="black"/>
<path d="M84.1665 84.1658L50.5 50.4993V84.1658H84.1665Z" fill="black"/>
<path d="M84.1665 16.8328L50.5 50.4993H101V16.8328H84.1665Z" fill="black"/>
<path d="M38.79 40.2528L50.5001 41.7167L62.2102 40.2528V33.2266L57.5261 35.5687L50.5001 28.5427L43.4741 35.5687L38.79 33.2266V40.2528Z" fill="#FFDA44"/>
<path d="M50.5001 68.0645C44.0432 68.0645 38.79 62.8113 38.79 56.3544V44.6447L43.1814 40.2532H57.8191L62.2104 44.6447V56.3544C62.2102 62.8113 56.957 68.0645 50.5001 68.0645Z" fill="#D80027"/>
<path d="M50.5004 63.6732C46.4647 63.6732 43.1816 60.3901 43.1816 56.3544V44.6445H57.8193V56.3544C57.8191 60.3899 54.5361 63.6732 50.5004 63.6732Z" fill="#F0F0F0"/>
<path d="M43.1814 40.252H38.79V44.6433H43.1814V40.252Z" fill="#FFDA44"/>
<path d="M62.2087 40.252H57.8174V44.6433H62.2087V40.252Z" fill="#FFDA44"/>
<path d="M62.2087 49.7681H57.8174V54.1594H62.2087V49.7681Z" fill="#FFDA44"/>
<path d="M43.1814 49.7681H38.79V54.1594H43.1814V49.7681Z" fill="#FFDA44"/>
<path d="M50.4993 63.6731C49.7345 63.6731 48.9971 63.5547 48.3037 63.3359V67.8549C49.0154 67.9906 49.7487 68.0644 50.4993 68.0644C51.2499 68.0644 51.9831 67.9906 52.6948 67.8549V63.3359C52.0015 63.5547 51.2641 63.6731 50.4993 63.6731Z" fill="#FFDA44"/>
<path d="M43.279 57.5422L39.7744 61.0469C40.3822 62.4303 41.2488 63.6742 42.3144 64.7172L45.418 61.6136C44.3105 60.5432 43.539 59.1283 43.279 57.5422Z" fill="#FFDA44"/>
<path d="M61.2246 61.0471L57.72 57.5422C57.4598 59.1279 56.6885 60.543 55.5811 61.6134L58.6846 64.717C59.7501 63.6742 60.6169 62.4305 61.2246 61.0471Z" fill="#FFDA44"/>
<path d="M49.0361 47.084V49.5236C49.0361 50.332 49.6915 50.9875 50.5 50.9875C51.3084 50.9875 51.9639 50.3322 51.9639 49.5236V47.084H49.0361Z" fill="#0052B4"/>
<path d="M49.0361 56.8423V59.2819C49.0361 60.0903 49.6915 60.7458 50.5 60.7458C51.3084 60.7458 51.9639 60.0905 51.9639 59.2819V56.8423H49.0361Z" fill="#0052B4"/>
<path d="M53.4268 51.9631V54.4029C53.4268 55.2111 54.0821 55.8668 54.8907 55.8668C55.6993 55.8668 56.3546 55.2111 56.3546 54.4029V51.9631H53.4268Z" fill="#0052B4"/>
<path d="M49.0361 51.9631V54.4029C49.0361 55.2111 49.6915 55.8668 50.5 55.8668C51.3084 55.8668 51.9639 55.2111 51.9639 54.4029V51.9631H49.0361Z" fill="#0052B4"/>
<path d="M44.6445 51.9631V54.4029C44.6445 55.2111 45.2998 55.8668 46.1084 55.8668C46.917 55.8668 47.5723 55.2111 47.5723 54.4029V51.9631H44.6445Z" fill="#0052B4"/>
</svg>
