<svg width="101" height="101" viewBox="0 0 101 101" fill="none" xmlns="http://www.w3.org/2000/svg">
<path d="M101 16.8328H0V84.1668H101V16.8328Z" fill="#6DA544"/>
<path d="M68.5151 65.1367L69.4389 67.0683L71.5252 66.5862L70.5909 68.5129L72.2685 69.8435L70.1798 70.314L70.1855 72.4555L68.5151 71.1158L66.8447 72.4555L66.8504 70.314L64.7617 69.8435L66.4393 68.5129L65.505 66.5862L67.5911 67.0683L68.5151 65.1367Z" fill="#FFDA44"/>
<path d="M59.9204 44.6438L60.8444 46.5758L62.9306 46.0933L61.9962 48.0202L63.6739 49.3506L61.5851 49.8214L61.5908 51.9627L59.9204 50.6229L58.2499 51.9627L58.2556 49.8214L56.167 49.3506L57.8445 48.0202L56.9101 46.0933L58.9964 46.5758L59.9204 44.6438Z" fill="#FFDA44"/>
<path d="M68.5151 32.9336L69.4389 34.8652L71.5252 34.3829L70.5911 36.31L72.2685 37.6404L70.1798 38.1112L70.1855 40.2523L68.5151 38.9127L66.8447 40.2523L66.8504 38.1112L64.7617 37.6404L66.4393 36.31L65.505 34.3829L67.5911 34.8652L68.5151 32.9336Z" fill="#FFDA44"/>
<path d="M76.0221 41.7163L76.9461 43.6479L79.0324 43.1658L78.0981 45.0927L79.7755 46.4231L77.6868 46.8937L77.6926 49.0351L76.0221 47.6954L74.3517 49.0351L74.3574 46.8937L72.2686 46.4231L73.9463 45.0927L73.012 43.1658L75.0983 43.6479L76.0221 41.7163Z" fill="#FFDA44"/>
<path d="M70.6543 51.9626L71.381 54.1992H73.7326L71.8302 55.5813L72.5569 57.8175L70.6543 56.4354L68.7521 57.8175L69.4788 55.5813L67.5762 54.1992H69.9278L70.6543 51.9626Z" fill="#FFDA44"/>
<path d="M54.1598 60.0134C48.905 60.0134 44.6451 55.7537 44.6451 50.4989C44.6451 45.2441 48.9048 40.9844 54.1598 40.9844C55.7983 40.9844 57.3397 41.3986 58.6857 42.1279C56.5743 40.0632 53.6867 38.7888 50.5001 38.7888C44.033 38.7888 38.79 44.0315 38.79 50.4989C38.79 56.9663 44.0328 62.209 50.5001 62.209C53.6869 62.209 56.5743 60.9346 58.6857 58.8699C57.3397 59.5992 55.7983 60.0134 54.1598 60.0134Z" fill="#FFDA44"/>
<path d="M38.0047 30.0063C36.9921 28.2565 35.1015 27.0789 32.935 27.0789C30.7684 27.0789 28.8776 28.2567 27.8652 30.0063H38.0047Z" fill="#FFDA44"/>
<path d="M38.0244 30.04L32.9351 35.1293L27.8459 30.04C27.3596 30.8938 27.0801 31.8807 27.0801 32.9337C27.0801 36.1675 29.7015 38.789 32.9353 38.789C36.1691 38.789 38.7906 36.1675 38.7906 32.9337C38.7902 31.8807 38.5106 30.8938 38.0244 30.04Z" fill="#FFDA44"/>
<path d="M31.4707 33.6655V38.6043C31.9386 38.7246 32.429 38.7887 32.9346 38.7887C33.4402 38.7887 33.9306 38.7246 34.3985 38.6043V33.6655H31.4707Z" fill="#A2001D"/>
</svg>
