<svg width="101" height="101" viewBox="0 0 101 101" fill="none" xmlns="http://www.w3.org/2000/svg">
<path d="M101 16.834H0V84.1659H101V16.834Z" fill="#F0F0F0"/>
<path d="M101 16.834H0V39.2779H101V16.834Z" fill="#6DA544"/>
<path d="M101 61.7219H0V84.1658H101V61.7219Z" fill="#D80027"/>
<path d="M59.2482 43.4739H55.7244C55.7536 43.8611 55.7702 44.2519 55.7702 44.6448C55.7702 47.2501 55.119 49.7757 53.9836 51.5732C53.6334 52.1279 53.0448 52.9107 52.2569 53.4386V43.4739H48.7438V53.4386C47.9559 52.9105 47.3675 52.1275 47.0171 51.5732C45.8817 49.7755 45.2307 47.2501 45.2307 44.6448C45.2307 44.2519 45.2474 43.8609 45.2764 43.4739H41.7527C41.73 43.8591 41.7178 44.2495 41.7178 44.6448C41.718 51.8681 45.5757 57.5261 50.5006 57.5261C55.4256 57.5261 59.2833 51.8681 59.2833 44.6448C59.2831 44.2495 59.2707 43.8591 59.2482 43.4739Z" fill="#D80027"/>
<path d="M13.1736 36.3511H8.78223V41.1685H13.1736V36.3511Z" fill="#F0F0F0"/>
<path d="M4.39133 36.3511H0V41.1685H4.39133V36.3511Z" fill="#F0F0F0"/>
<path d="M21.9568 36.3511H17.5654V41.1685H21.9568V36.3511Z" fill="#F0F0F0"/>
<path d="M30.739 36.3511H26.3477V41.1685H30.739V36.3511Z" fill="#F0F0F0"/>
<path d="M39.5222 36.3511H35.1309V41.1685H39.5222V36.3511Z" fill="#F0F0F0"/>
<path d="M48.3044 36.3511H43.9131V41.1685H48.3044V36.3511Z" fill="#F0F0F0"/>
<path d="M57.0866 36.3511H52.6953V41.1685H57.0866V36.3511Z" fill="#F0F0F0"/>
<path d="M65.8698 36.3511H61.4785V41.1685H65.8698V36.3511Z" fill="#F0F0F0"/>
<path d="M74.6521 36.3511H70.2607V41.1685H74.6521V36.3511Z" fill="#F0F0F0"/>
<path d="M83.4353 36.3511H79.0439V41.1685H83.4353V36.3511Z" fill="#F0F0F0"/>
<path d="M92.2175 36.3511H87.8262V41.1685H92.2175V36.3511Z" fill="#F0F0F0"/>
<path d="M101 36.3511H96.6084V41.1685H101V36.3511Z" fill="#F0F0F0"/>
<path d="M13.1736 59.6118H8.78223V64.6488H13.1736V59.6118Z" fill="#F0F0F0"/>
<path d="M4.39133 59.6118H0V64.6488H4.39133V59.6118Z" fill="#F0F0F0"/>
<path d="M21.9568 59.6118H17.5654V64.6488H21.9568V59.6118Z" fill="#F0F0F0"/>
<path d="M30.739 59.6118H26.3477V64.6488H30.739V59.6118Z" fill="#F0F0F0"/>
<path d="M39.5222 59.6118H35.1309V64.6488H39.5222V59.6118Z" fill="#F0F0F0"/>
<path d="M48.3044 59.6118H43.9131V64.6488H48.3044V59.6118Z" fill="#F0F0F0"/>
<path d="M57.0866 59.6118H52.6953V64.6488H57.0866V59.6118Z" fill="#F0F0F0"/>
<path d="M65.8698 59.6118H61.4785V64.6488H65.8698V59.6118Z" fill="#F0F0F0"/>
<path d="M74.6521 59.6118H70.2607V64.6488H74.6521V59.6118Z" fill="#F0F0F0"/>
<path d="M83.4353 59.6118H79.0439V64.6488H83.4353V59.6118Z" fill="#F0F0F0"/>
<path d="M92.2175 59.6118H87.8262V64.6488H92.2175V59.6118Z" fill="#F0F0F0"/>
<path d="M101 59.6118H96.6084V64.6488H101V59.6118Z" fill="#F0F0F0"/>
</svg>
