<svg width="101" height="101" viewBox="0 0 101 101" fill="none" xmlns="http://www.w3.org/2000/svg">
<path d="M101 16.8335H0V84.1675H101V16.8335Z" fill="#F0F0F0"/>
<path d="M101 16.8335H0V84.1675H101V16.8335Z" fill="#F0F0F0"/>
<path d="M59.4273 50.4995L101 22.784V16.8325H92.0727L50.5 44.5478L8.92726 16.8325H0V22.784L41.5727 50.4995L0 78.2147V84.166H8.92726L50.5 56.451L92.0727 84.166H101V78.2147L59.4273 50.4995Z" fill="#D80027"/>
<path d="M46.1084 32.9342L50.4997 34.032L54.8911 32.9342V29.2015L53.1346 30.0799L50.4997 27.4451L47.8649 30.0799L46.1084 29.2015V32.9342Z" fill="#FFDA44"/>
<path d="M46.1084 32.9341V35.6788C46.1084 39.0402 50.4997 40.0702 50.4997 40.0702C50.4997 40.0702 54.8911 39.0402 54.8911 35.6788V32.9341H46.1084Z" fill="#D80027"/>
</svg>
