<svg width="101" height="101" viewBox="0 0 101 101" fill="none" xmlns="http://www.w3.org/2000/svg">
<path d="M101 16.8328H0V84.1668H101V16.8328Z" fill="#496E2D"/>
<path d="M56.3548 49.095C55.5283 49.095 54.7439 49.2599 54.0151 49.5219C54.4141 48.6324 54.6816 47.6425 54.6816 46.5856C54.6816 42.4034 50.4994 39.2668 50.4994 39.2668C50.4994 39.2668 46.3172 42.4036 46.3172 46.5856C46.3172 47.6423 46.5846 48.6322 46.9837 49.5219C46.2552 49.2599 45.4705 49.095 44.6439 49.095C40.4617 49.095 37.3252 53.2772 37.3252 53.2772C37.3252 53.2772 40.4619 57.4595 44.6439 57.4595C47.0958 57.4595 49.1872 56.0222 50.4992 54.8329C51.811 56.0224 53.9022 57.4595 56.3544 57.4595C60.5367 57.4595 63.6732 53.2772 63.6732 53.2772C63.6732 53.2772 60.5369 49.095 56.3548 49.095Z" fill="#F0F0F0"/>
<path d="M50.5003 30.0063L51.3643 32.6647H54.1598L51.8983 34.3083L52.7616 36.9667L50.5003 35.3234L48.239 36.9667L49.1023 34.3083L46.8408 32.6647H49.6363L50.5003 30.0063Z" fill="#FFDA44"/>
<path d="M39.8704 34.6562L41.5324 36.1525L43.4692 35.0346L42.5598 37.0773L44.2213 38.5741L41.9974 38.3404L41.0878 40.3831L40.6226 38.1958L38.3984 37.962L40.3352 36.8437L39.8704 34.6562Z" fill="#FFDA44"/>
<path d="M32.0879 42.4382L34.2756 42.9033L35.3937 40.9666L35.6276 43.1905L37.8151 43.6557L35.772 44.5651L36.006 46.789L34.5093 45.1275L32.4662 46.0369L33.5845 44.1001L32.0879 42.4382Z" fill="#FFDA44"/>
<path d="M61.1304 34.6562L59.4684 36.1525L57.5317 35.0346L58.4413 37.0773L56.7793 38.5741L59.0035 38.3404L59.9129 40.3831L60.3782 38.1958L62.6024 37.962L60.6656 36.8437L61.1304 34.6562Z" fill="#FFDA44"/>
<path d="M68.9126 42.4382L66.7251 42.9033L65.6068 40.9666L65.3728 43.1905L63.1855 43.6557L65.2286 44.5651L64.9949 46.789L66.4913 45.1275L68.5344 46.0369L67.4161 44.1001L68.9126 42.4382Z" fill="#FFDA44"/>
<path d="M50.4994 69.1697C53.8214 69.1697 56.8836 68.0612 59.3401 66.1963H41.6592C44.1153 68.0612 47.1775 69.1697 50.4994 69.1697Z" fill="#F0F0F0"/>
<path d="M37.0811 60.387C37.5456 61.4502 38.1346 62.4464 38.8269 63.3603H62.1723C62.8643 62.4466 63.4535 61.4504 63.9181 60.387H37.0811Z" fill="#F0F0F0"/>
</svg>
