<svg width="101" height="101" viewBox="0 0 101 101" fill="none" xmlns="http://www.w3.org/2000/svg">
<path d="M101 16.8328H0V84.1647H101V16.8328Z" fill="#FFDA44"/>
<path d="M101 16.8328H65.1387V84.1668H101V16.8328Z" fill="#0052B4"/>
<path d="M35.8615 16.8328H0V84.1668H35.8615V16.8328Z" fill="#0052B4"/>
<path d="M60.3118 53.518L62.5758 56.537V44.461L60.3118 47.4799H53.5188V40.6873L56.5379 38.4229H44.4617L47.4809 40.6873V47.4799H40.688L38.4238 44.461V56.537L40.688 53.518H47.4809V60.3109L44.4617 62.5751H56.5379L53.5188 60.3109V53.518H60.3118Z" fill="#D80027"/>
<path d="M59.5575 48.9892H52.0099V41.4417H48.9909V48.9892H41.4434V52.0084H48.9909V59.5558H52.0099V52.0084H59.5575V48.9892Z" fill="#F0F0F0"/>
</svg>
