<svg width="101" height="101" viewBox="0 0 101 101" fill="none" xmlns="http://www.w3.org/2000/svg">
<path d="M101 16.8328H0V84.1668H101V16.8328Z" fill="#338AF3"/>
<path d="M68.065 53.4255H32.9346V57.8169H68.065V53.4255Z" fill="#818085"/>
<path d="M38.79 40.2526L50.5001 41.7167L62.2102 40.2526V33.2266L57.5261 35.5685L50.5001 28.5425L43.4741 35.5685L38.79 33.2266V40.2526Z" fill="#FFDA44"/>
<path d="M35.862 62.2092H31.4707V54.1586L32.9346 51.9628L31.4707 49.7672V44.644H35.862V62.2092Z" fill="#F0F0F0"/>
<path d="M69.529 62.2092H65.1377V44.644H69.529V49.767L68.0651 51.9995L69.529 54.159V62.2092Z" fill="#F0F0F0"/>
<path d="M69.528 49.7678H31.4707V54.1592H69.528V49.7678Z" fill="#ACABB1"/>
<path d="M50.5001 68.0642C44.0432 68.0642 38.79 62.811 38.79 56.3541V40.2527H62.2104V56.3541C62.2102 62.811 56.957 68.0642 50.5001 68.0642Z" fill="#F0F0F0"/>
<path d="M50.5004 63.6729C46.4647 63.6729 43.1816 60.3898 43.1816 56.3541V44.644H57.8193V56.3541C57.8191 60.3898 54.5361 63.6729 50.5004 63.6729Z" fill="#0052B4"/>
<path d="M43.1814 40.252H38.79V44.6433H43.1814V40.252Z" fill="#D80027"/>
<path d="M62.2087 40.252H57.8174V44.6433H62.2087V40.252Z" fill="#D80027"/>
<path d="M62.2087 49.7678H57.8174V54.1592H62.2087V49.7678Z" fill="#D80027"/>
<path d="M43.1814 49.7678H38.79V54.1592H43.1814V49.7678Z" fill="#D80027"/>
<path d="M52.695 40.252H48.3037V44.6433H52.695V40.252Z" fill="#D80027"/>
<path d="M50.4993 63.6728C49.7345 63.6728 48.9971 63.5545 48.3037 63.3357V67.8547C49.0154 67.9904 49.7487 68.0642 50.4993 68.0642C51.2499 68.0642 51.9831 67.9904 52.6948 67.8547V63.3357C52.0015 63.5545 51.2641 63.6728 50.4993 63.6728Z" fill="#D80027"/>
<path d="M43.279 57.5422L39.7744 61.0469C40.3822 62.4303 41.2488 63.6742 42.3144 64.7172L45.418 61.6136C44.3105 60.5432 43.539 59.1281 43.279 57.5422Z" fill="#D80027"/>
<path d="M61.2246 61.0469L57.72 57.5422C57.4598 59.1279 56.6885 60.543 55.5811 61.6134L58.6846 64.717C59.7501 63.6742 60.6169 62.4303 61.2246 61.0469Z" fill="#D80027"/>
</svg>
