<svg width="101" height="101" viewBox="0 0 101 101" fill="none" xmlns="http://www.w3.org/2000/svg">
<path d="M101 16.8328H0V84.1668H101V16.8328Z" fill="#338AF3"/>
<path d="M49.6061 68.6611C48.8356 68.6238 48.1982 68.1231 47.9487 67.4433C47.5076 68.0186 46.7497 68.3082 46.0028 68.1156C45.2548 67.9231 44.7318 67.3041 44.6235 66.5862C44.0744 67.0606 43.2741 67.1901 42.582 66.8508C41.8887 66.5103 41.501 65.7981 41.5409 65.0738C40.9084 65.4293 40.0983 65.3943 39.4881 64.9223C38.8794 64.4502 38.6419 63.676 38.8259 62.9741C38.1351 63.1954 37.3498 62.999 36.8465 62.4137C36.3433 61.8296 36.2662 61.0231 36.5867 60.3735C35.8661 60.4505 35.1355 60.1001 34.7603 59.4269C34.3837 58.7534 34.4707 57.947 34.9169 57.3741C34.1949 57.3045 33.5491 56.8139 33.3179 56.0783C33.0855 55.3427 33.334 54.5698 33.887 54.0989C33.1936 53.8851 32.6618 53.2738 32.5836 52.507C32.5053 51.7402 32.9028 51.036 33.5378 50.6854C32.9028 50.3377 32.5028 49.633 32.5785 48.8676C32.5785 48.8676 32.5785 48.8676 32.5797 48.8676C32.6554 48.0999 33.1873 47.4872 33.8793 47.271C33.3263 46.8013 33.0754 46.0296 33.3052 45.294C33.535 44.5572 34.1799 44.065 34.9019 43.993C34.4557 43.4215 34.3663 42.6151 34.7403 41.9402C35.1144 41.2668 35.845 40.9151 36.5668 40.991C36.2439 40.341 36.3196 39.5348 36.8215 38.9481C37.3222 38.363 38.1075 38.1654 38.7995 38.3841C38.6131 37.6835 38.8492 36.908 39.4579 36.4346C40.0655 35.9611 40.8757 35.925 41.5079 36.2779C41.4669 35.5536 41.8533 34.8414 42.5454 34.5C43.2362 34.1595 44.0377 34.2863 44.588 34.7608C44.6936 34.0425 45.2169 33.4213 45.9636 33.2276C46.709 33.0337 47.4671 33.3207 47.9094 33.895C48.1593 33.2154 48.7953 32.7133 49.5658 32.6749C50.335 32.6352 51.0183 33.0674 51.3365 33.7174C51.7168 33.1012 52.4398 32.7358 53.2014 32.8514C53.9643 32.9658 54.5496 33.5273 54.7308 34.2293C55.228 33.6999 56.0107 33.49 56.7337 33.7559C57.458 34.0232 57.9179 34.6915 57.9528 35.4171C58.5454 34.9997 59.3555 34.9511 60.0103 35.3587C60.665 35.7648 60.9794 36.5119 60.8676 37.2288C61.5324 36.9392 62.335 37.0548 62.8941 37.5842C63.4533 38.1147 63.6123 38.9089 63.3588 39.5884C64.0682 39.4381 64.8312 39.7113 65.2735 40.344C65.716 40.9752 65.7122 41.7852 65.3282 42.4005C66.0525 42.3953 66.7445 42.8181 67.0515 43.5249C67.357 44.2333 67.1894 45.0271 66.6887 45.5528C67.4008 45.6944 67.9934 46.2473 68.1498 47.0029C68.3051 47.7584 67.9808 48.5001 67.3856 48.914C68.0518 49.1961 68.5213 49.8559 68.5225 50.6263C68.5225 50.6347 68.5225 50.6424 68.5225 50.6511C68.5225 50.6562 68.5225 50.6623 68.5225 50.6673C68.5225 51.4376 68.0552 52.0986 67.3894 52.3831C67.9857 52.7944 68.3126 53.5363 68.1571 54.2916C68.0031 55.0472 67.4117 55.6013 66.6997 55.7453C67.2016 56.2696 67.372 57.0622 67.0674 57.7718C66.7629 58.4802 66.0709 58.9039 65.3451 58.9C65.7302 59.515 65.7367 60.3252 65.2954 60.9574C64.8543 61.5901 64.0927 61.8659 63.3833 61.7167C63.638 62.3951 63.4804 63.1905 62.9225 63.7223C62.3632 64.253 61.5618 64.3696 60.8972 64.0825C61.0102 64.7984 60.6971 65.5464 60.0434 65.955C59.3897 66.3637 58.5797 66.3164 57.9859 65.9003C57.9524 66.6261 57.4951 67.2956 56.772 67.5641C56.772 67.5641 56.772 67.5641 56.7706 67.5641C56.0474 67.8314 55.2646 67.6225 54.7664 67.0944C54.5874 67.7976 54.0033 68.3604 53.2405 68.4772C52.4789 68.5926 51.7545 68.23 51.3732 67.6136C51.07 68.2387 50.4289 68.6636 49.6984 68.6636C49.6682 68.6636 49.6372 68.6624 49.6061 68.6611Z" fill="#F3F3F3"/>
<path d="M50.5062 63.0908C57.3685 63.0908 62.9314 57.5279 62.9314 50.6656C62.9314 43.8034 57.3685 38.2405 50.5062 38.2405C43.644 38.2405 38.0811 43.8034 38.0811 50.6656C38.0811 57.5279 43.644 63.0908 50.5062 63.0908Z" fill="#338AF3"/>
<path d="M53.2267 46.449C53.8371 45.9963 54.2346 45.2725 54.2346 44.4541V43.2115C54.2346 41.8389 53.122 40.7266 51.7496 40.7266H49.2646C47.8921 40.7266 46.7797 41.8391 46.7797 43.2115V44.4541C46.7797 45.2725 47.1772 45.9963 47.7875 46.449L45.5371 69.3046C45.5371 69.3046 46.7797 70.5474 50.5072 70.5474C54.2347 70.5474 55.4773 69.3046 55.4773 69.3046L53.2267 46.449Z" fill="#BDBCC1"/>
<path d="M50.5064 40.7266L52.6652 47.3709H59.652L53.9999 51.4775L56.1588 58.122L50.5064 54.0158L44.8545 58.122L47.0134 51.4775L41.3613 47.3709H48.3477L50.5064 40.7266Z" fill="#F0F0F0"/>
</svg>
