<svg width="101" height="101" viewBox="0 0 101 101" fill="none" xmlns="http://www.w3.org/2000/svg">
<path d="M101 16.8328H0V84.1668H101V16.8328Z" fill="#F0F0F0"/>
<path d="M46.1914 43.6106L48.9537 47.417L53.4271 45.9663L50.6606 49.7696L53.4228 53.5763L48.9505 52.12L46.1839 55.9233L46.1867 51.2203L41.7148 49.7643L46.1884 48.3136L46.1914 43.6106Z" fill="#D80027"/>
<path d="M38.6528 59.2815C33.3982 59.2815 29.1382 55.0217 29.1382 49.767C29.1382 44.5122 33.398 40.2525 38.6528 40.2525C40.2912 40.2525 41.8327 40.6667 43.1786 41.396C41.0671 39.3312 38.1795 38.0569 34.9933 38.0569C28.5259 38.0569 23.2832 43.2996 23.2832 49.767C23.2832 56.2343 28.5259 61.477 34.9933 61.477C38.1795 61.477 41.0671 60.2025 43.1786 58.1379C41.8329 58.8672 40.2912 59.2815 38.6528 59.2815Z" fill="#D80027"/>
<path d="M101 27.8113H0V32.2026H101V27.8113Z" fill="#D80027"/>
<path d="M101 67.3328H0V71.7241H101V67.3328Z" fill="#D80027"/>
</svg>
