<svg width="101" height="101" viewBox="0 0 101 101" fill="none" xmlns="http://www.w3.org/2000/svg">
<path d="M101 16.8328H0V84.1668H101V16.8328Z" fill="#91DC5A"/>
<path d="M101 16.8328H0V84.1668H101V16.8328Z" fill="#F0F0F0"/>
<path d="M101 16.8328H0V28.114H101V16.8328Z" fill="#0052B4"/>
<path d="M101 72.8855H0V84.1646H101V72.8855Z" fill="#0052B4"/>
<path d="M101 32.5913H0V68.4112H101V32.5913Z" fill="#D80027"/>
<path d="M37.5458 63.4528C44.7002 63.4528 50.4999 57.653 50.4999 50.4987C50.4999 43.3444 44.7002 37.5447 37.5458 37.5447C30.3915 37.5447 24.5918 43.3444 24.5918 50.4987C24.5918 57.653 30.3915 63.4528 37.5458 63.4528Z" fill="#F0F0F0"/>
<path d="M37.5462 37.5459L40.4527 46.4911H49.8735L42.2492 52.0201L45.1784 60.9919L37.5462 55.4369L29.9256 60.9814L32.8432 52.0201L25.2256 46.4911H34.6395L37.5462 37.5459Z" fill="#D80027"/>
</svg>
