<svg width="101" height="101" viewBox="0 0 101 101" fill="none" xmlns="http://www.w3.org/2000/svg">
<path d="M101 16.8328H0V84.1668H101V16.8328Z" fill="#0052B4"/>
<path d="M64.9489 52.1158L70.9933 49.7671L64.9489 47.4185L61.6291 46.1283L56.2353 44.0324L54.1393 38.6386C57.6735 39.7969 60.4706 42.5937 61.6289 46.1282L64.9487 47.4183C63.9452 41.2245 59.0426 36.3219 52.8492 35.3184L50.5004 29.2742L48.1517 35.3186C41.9582 36.3221 37.0553 41.2247 36.0522 47.4185L30.0078 49.7671L36.0522 52.1158C37.0553 58.3093 41.9584 63.2121 48.1517 64.2152L50.5004 70.2597L52.849 64.2152C59.0427 63.2121 63.9454 58.3093 64.9489 52.1158ZM53.9732 46.2942L50.5004 49.7671H62.9103L53.9732 53.24L50.5004 49.7671V62.1773L47.0275 53.2402L50.5004 49.7671H38.0904L47.0273 46.2944L50.5004 49.7671V37.3571L53.9732 46.2942ZM46.8616 38.6386L44.7656 44.0324L39.372 46.1283C40.5304 42.5937 43.3272 39.7973 46.8616 38.6386ZM39.3718 53.4059L44.7654 55.5018L46.8614 60.8955C43.3272 59.7369 40.5306 56.9401 39.3718 53.4059ZM54.1391 60.8953L56.2351 55.5016L61.6287 53.4057C60.4702 56.9401 57.6733 59.7369 54.1391 60.8953Z" fill="#F0F0F0"/>
<path d="M62.91 49.7671H50.5L53.9729 53.24L62.91 49.7671Z" fill="#0052B4"/>
<path d="M38.0898 49.7671H50.4998L47.027 46.2942L38.0898 49.7671Z" fill="#0052B4"/>
<path d="M50.5002 62.1771V49.7671L47.0273 53.24L50.5002 62.1771Z" fill="#0052B4"/>
<path d="M50.5 49.7671L53.9729 46.2942L50.5 37.3569V49.7671Z" fill="#0052B4"/>
<path d="M51.9636 20.491H49.0361V26.3462H51.9636V20.491Z" fill="#F0F0F0"/>
<path d="M27.0808 48.3032H21.2256V51.2306H27.0808V48.3032Z" fill="#F0F0F0"/>
<path d="M51.9636 73.1865H49.0361V79.0418H51.9636V73.1865Z" fill="#F0F0F0"/>
<path d="M79.7761 48.3032H73.9209V51.2306H79.7761V48.3032Z" fill="#F0F0F0"/>
</svg>
