<svg width="101" height="101" viewBox="0 0 101 101" fill="none" xmlns="http://www.w3.org/2000/svg">
<path d="M101 16.8333H0V84.1673H101V16.8333Z" fill="#0052B4"/>
<path d="M79.0433 43.3634L75.7497 44.4612L72.4562 43.3634L71.3584 40.6188L72.4562 37.8743H79.0433L77.9453 40.6188L79.0433 43.3634Z" fill="#ACABB1"/>
<path d="M68.0654 43.3633V55.4393C68.0654 61.3219 75.7503 63.1242 75.7503 63.1242C75.7503 63.1242 83.4352 61.3218 83.4352 55.4393V43.3633H68.0654Z" fill="#338AF3"/>
<path d="M68.7578 58.3002C70.6468 61.9271 75.7499 63.1243 75.7499 63.1243C75.7499 63.1243 80.853 61.9271 82.742 58.3002L75.7499 46.657L68.7578 58.3002Z" fill="#6DA544"/>
<path d="M83.4352 55.3174L75.7503 43.3633L68.0654 55.3174V55.4393C68.0654 56.5278 68.3292 57.4766 68.7582 58.3002L75.7503 47.4236L82.7424 58.3002C83.1714 57.4766 83.4352 56.5282 83.4352 55.4393V55.3174Z" fill="#FFDA44"/>
<path d="M50.5 16.8333V22.8603L41.5901 27.8115H50.5V39.521H38.841L50.5 45.9982V50.4992H45.237L30.7391 42.4456V50.4992H19.7609V40.9174L2.51395 50.4992H0V44.4719L8.9099 39.521H0V27.8115H11.659L0 21.3321V16.8333H5.26305L19.7609 24.8866V16.8333H30.7391V26.4148L47.986 16.8333H50.5Z" fill="#F0F0F0"/>
<path d="M28.4062 16.8328H22.0938V30.5096H0V36.8221H22.0938V50.4993H28.4062V36.8221H50.5V30.5096H28.4062V16.8328Z" fill="#D80027"/>
<path d="M30.7393 39.521L50.5001 50.4992V47.3949L36.3272 39.521H30.7393Z" fill="#0052B4"/>
<path d="M30.7393 39.521L50.5001 50.4992V47.3949L36.3272 39.521H30.7393Z" fill="#F0F0F0"/>
<path d="M30.7393 39.521L50.5001 50.4992V47.3949L36.3272 39.521H30.7393Z" fill="#D80027"/>
<path d="M14.1727 39.521L0 47.3949V50.4992L19.7609 39.521H14.1727Z" fill="#D80027"/>
<path d="M19.7609 27.811L0 16.8328V19.9371L14.1729 27.811H19.7609Z" fill="#0052B4"/>
<path d="M19.7609 27.811L0 16.8328V19.9371L14.1729 27.811H19.7609Z" fill="#F0F0F0"/>
<path d="M19.7609 27.811L0 16.8328V19.9371L14.1729 27.811H19.7609Z" fill="#D80027"/>
<path d="M36.3274 27.811L50.5001 19.9371V16.8328L30.7393 27.811H36.3274Z" fill="#D80027"/>
</svg>
