<svg width="101" height="101" viewBox="0 0 101 101" fill="none" xmlns="http://www.w3.org/2000/svg">
<path d="M101 16.8328H0V84.1668H101V16.8328Z" fill="#FCFCFC"/>
<path d="M60.7467 44.6438V47.5712H64.7646C63.0879 49.9017 60.8544 51.804 58.2594 53.0852C57.5936 52.3936 56.6592 51.9626 55.6235 51.9626C53.8777 51.9626 52.4184 53.1856 52.053 54.8213C51.5415 54.8661 51.0237 54.89 50.5004 54.89C49.9768 54.89 49.4592 54.8661 48.9477 54.8213C48.5823 53.1856 47.1228 51.9626 45.3772 51.9626C44.3415 51.9626 43.4071 52.3936 42.7413 53.085C40.1465 51.8041 37.913 49.9015 36.2363 47.5712H40.2542V44.6438H30.0078C30.0078 55.9615 39.1828 65.1365 50.5006 65.1365C61.8185 65.1365 70.9933 55.9615 70.9933 44.6438H60.7467Z" fill="#D80027"/>
</svg>
