<svg width="101" height="101" viewBox="0 0 101 101" fill="none" xmlns="http://www.w3.org/2000/svg">
<path d="M101 16.8347H0V84.1666H101V16.8347Z" fill="#0052B4"/>
<path d="M101 16.8335V49.7157L0 50.5345V16.8335H101Z" fill="#D80027"/>
<path d="M84.1659 50.5007C84.1748 50.5095 50.5307 84.1907 50.4999 84.1666C50.4692 84.1907 16.8253 50.5095 16.834 50.5007C16.8253 50.4918 50.4692 16.8105 50.4999 16.8347C50.5307 16.8105 84.1746 50.4918 84.1659 50.5007Z" fill="#F0F0F0"/>
<path d="M50.5004 34.3992L54.1339 45.5812H65.8915L56.3793 52.4922L60.0126 63.6744L50.5004 56.7634L40.9883 63.6744L44.6215 52.4922L35.1094 45.5812H46.867L50.5004 34.3992Z" fill="#FFDA44"/>
</svg>
