<svg width="101" height="101" viewBox="0 0 101 101" fill="none" xmlns="http://www.w3.org/2000/svg">
<path d="M101 16.8328H0V84.1668H101V16.8328Z" fill="#F0F0F0"/>
<path d="M76.946 43.9119H65.8701C65.8701 41.8911 64.2316 40.2524 62.2106 40.2524L59.2832 46.1077C59.2832 46.1077 62.4061 54.8903 62.3085 54.8903H65.9679C67.9891 54.8903 69.6274 53.2518 69.6274 51.2309C71.6486 51.2309 73.2869 49.5924 73.2869 47.5714H73.165C75.1854 47.5714 76.946 45.9331 76.946 43.9119Z" fill="#ACABB1"/>
<path d="M24.0547 43.9119H35.1306C35.1306 41.8911 36.769 40.2524 38.79 40.2524L41.7175 46.1077C41.7175 46.1077 38.5945 54.8903 38.6922 54.8903H35.0327C33.0115 54.8903 31.3732 53.2518 31.3732 51.2309C29.3521 51.2309 27.7138 49.5924 27.7138 47.5714H27.8357C25.8153 47.5714 24.0547 45.9331 24.0547 43.9119Z" fill="#ACABB1"/>
<path d="M62.2098 63.6729V65.1368H38.7896V63.6729H32.9346V69.5281H38.7896V70.9916H62.2098V69.5281H68.0648V63.6729H62.2098Z" fill="#FFDA44"/>
<path d="M38.79 40.2525V54.89C38.79 63.8538 50.5001 66.6003 50.5001 66.6003C50.5001 66.6003 62.2102 63.8538 62.2102 54.89V40.2525L50.5001 38.7888L38.79 40.2525Z" fill="#0052B4"/>
<path d="M62.211 46.1077H38.79V54.8903H62.211V46.1077Z" fill="#D80027"/>
<path d="M56.3554 32.9338V35.1293L54.8914 35.8612L53.4275 34.3977V30.0063H47.5727V34.3977L46.1088 35.8612L44.6449 35.1293V32.9338H38.79V40.2525H62.2102V32.9338H56.3554Z" fill="#FFDA44"/>
</svg>
