<svg width="101" height="101" viewBox="0 0 101 101" fill="none" xmlns="http://www.w3.org/2000/svg">
<path d="M101 16.834H0V84.1659H101V16.834Z" fill="#F0F0F0"/>
<path d="M101 16.834H0V39.2779H101V16.834Z" fill="black"/>
<path d="M101 61.7222H0V84.1661H101V61.7222Z" fill="#496E2D"/>
<path d="M50.5 50.5011L0 84.1668V16.8328L50.5 50.5011Z" fill="#D80027"/>
<path d="M60.3069 50.5C60.3069 46.5759 63.0646 43.2978 66.7474 42.4935C66.1814 42.3698 65.594 42.303 64.9909 42.303C60.4637 42.303 56.7939 45.9727 56.7939 50.5C56.7939 55.0272 60.4637 58.6969 64.9909 58.6969C65.5942 58.6969 66.1814 58.6301 66.7474 58.5064C63.0646 57.7021 60.3069 54.424 60.3069 50.5Z" fill="#D80027"/>
<path d="M67.0921 45.2302L68.2548 48.8086H72.0171L68.9733 51.0202L70.1359 54.5984L67.0921 52.387L64.0481 54.5984L65.211 51.0202L62.167 48.8086H65.9292L67.0921 45.2302Z" fill="#D80027"/>
</svg>
