<svg width="101" height="101" viewBox="0 0 101 101" fill="none" xmlns="http://www.w3.org/2000/svg">
<path d="M101 16.8333H0V84.1673H101V16.8333Z" fill="#FFDA44"/>
<path d="M0 16.8328H101V84.1658" fill="#D80027"/>
<path d="M59.3005 59.3023C57.9175 59.8455 56.3108 59.7879 54.9167 59.0054C52.4537 57.6229 51.5742 54.4937 52.9571 52.0303L52.5373 51.7949C56.7548 50.7778 59.8754 46.9497 59.8207 42.4319C59.7866 39.6233 58.5316 37.1105 56.5686 35.3911L53.4948 38.5401C54.6569 39.4662 55.4103 40.8867 55.4296 42.485C55.4639 45.3096 53.1936 47.6358 50.3691 47.6701L50.3749 48.1512C47.3853 45.0074 42.5099 44.2193 38.6247 46.5254C36.2096 47.9593 34.6611 50.3024 34.1533 52.8623L38.4174 53.9499C38.6385 52.4802 39.4919 51.1177 40.8663 50.3016C43.2954 48.8598 46.4449 49.6627 47.887 52.092L48.3008 51.8466C47.0728 56.0073 48.8277 60.6238 52.7677 62.8355C55.2171 64.2102 58.0203 64.3797 60.4914 63.5393L59.3005 59.3023Z" fill="#FF9811"/>
<path d="M62.9659 39.6336L60.5864 48.1253L53.4466 46.8068L48.8509 37.3335L36.4354 41.7392L35.4562 38.9803L32.208 38.58L34.6555 45.4776L43.1996 43.2925L45.6278 50.1349L39.7215 58.8514L49.7445 67.4003L47.8447 69.6278L49.1222 72.6415L53.8719 67.0729L47.7076 60.7663L52.4192 55.2424L62.9213 55.9994L65.3135 43.0443L68.1924 43.576L70.1637 40.9628L62.9659 39.6336Z" fill="#FFEACF"/>
</svg>
