<svg width="101" height="101" viewBox="0 0 101 101" fill="none" xmlns="http://www.w3.org/2000/svg">
<path d="M101 16.8333H0V84.1673H101V16.8333Z" fill="#F0F0F0"/>
<path d="M22.8261 23.1914C20.0977 23.1914 17.8053 25.0575 17.1553 27.5827L22.8261 29.0466L28.4969 27.5827C27.8469 25.0571 25.5543 23.1914 22.8261 23.1914Z" fill="black"/>
<path d="M16.9705 36.3651L24.2893 37.829V34.7169C26.3466 34.1871 27.9661 32.5673 28.4958 30.51L22.8256 29.0461H15.5068L16.9707 33.4375L16.9705 36.3651Z" fill="black"/>
<path d="M28.4962 27.5825H15.5068V30.5099V33.4374H16.9707V30.5099H28.4962C28.6167 30.042 28.681 29.5516 28.681 29.046C28.6806 28.5408 28.6165 28.0504 28.4962 27.5825Z" fill="#ACABB1"/>
<path d="M79.6386 23.1914C76.9102 23.1914 74.6178 25.0575 73.9678 27.5827L79.6386 29.0466L85.3094 27.5827C84.6594 25.0571 82.3667 23.1914 79.6386 23.1914Z" fill="black"/>
<path d="M73.783 36.3651L81.1018 37.829V34.7169C83.1591 34.1871 84.7786 32.5673 85.3083 30.51L79.6381 29.0461H72.3193L73.7832 33.4375L73.783 36.3651Z" fill="black"/>
<path d="M85.3089 27.5825H72.3193V30.5099V33.4374H73.7832V30.5099H85.3087C85.4292 30.042 85.4935 29.5516 85.4935 29.046C85.4933 28.5408 85.4292 28.0504 85.3089 27.5825Z" fill="#ACABB1"/>
<path d="M79.6386 63.1697C76.9102 63.1697 74.6178 65.0358 73.9678 67.561L79.6386 69.0249L85.3094 67.561C84.6594 65.0356 82.3667 63.1697 79.6386 63.1697Z" fill="black"/>
<path d="M73.783 76.3436L81.1018 77.8075V74.6954C83.1591 74.1656 84.7786 72.5458 85.3083 70.4886L79.6381 69.0247H72.3193L73.7832 73.416L73.783 76.3436Z" fill="black"/>
<path d="M85.3089 67.561H72.3193V70.4885V73.4159H73.7832V70.4885H85.3087C85.4292 70.0205 85.4935 69.5301 85.4935 69.0246C85.4933 68.5194 85.4292 68.0289 85.3089 67.561Z" fill="#ACABB1"/>
<path d="M22.8261 63.1697C20.0977 63.1697 17.8053 65.0358 17.1553 67.561L22.8261 69.0249L28.4969 67.561C27.8469 65.0356 25.5543 63.1697 22.8261 63.1697Z" fill="black"/>
<path d="M16.9705 76.3436L24.2893 77.8075V74.6954C26.3466 74.1656 27.9661 72.5458 28.4958 70.4886L22.8256 69.0247H15.5068L16.9707 73.416L16.9705 76.3436Z" fill="black"/>
<path d="M28.4962 67.561H15.5068V70.4885V73.4159H16.9707V70.4885H28.4962C28.6167 70.0205 28.681 69.5301 28.681 69.0246C28.6806 68.5194 28.6165 68.0289 28.4962 67.561Z" fill="#ACABB1"/>
<path d="M56.8125 16.8328H44.1875V44.1868H0V56.8118H44.1875V84.1658H56.8125V56.8118H101V44.1868H56.8125V16.8328Z" fill="#D80027"/>
</svg>
