<svg width="101" height="101" viewBox="0 0 101 101" fill="none" xmlns="http://www.w3.org/2000/svg">
<path d="M101 16.8333H0V84.1673H101V16.8333Z" fill="#D80027"/>
<path d="M98.804 19.0291H2.19531V81.9718H98.804V19.0291Z" fill="#0052B4"/>
<path d="M25.8809 50.4993L50.4996 35.0254L75.1184 50.4993L50.4996 65.9734L25.8809 50.4993Z" fill="#D80027"/>
<path d="M49.4022 16.8328V49.4015H0V51.5971H49.4022V84.1658H51.5978V51.5971H101V49.4015H51.5978V16.8328H49.4022Z" fill="#D80027"/>
<path d="M30.0068 50.4992L50.4996 37.6189L70.9923 50.4992L50.4996 63.3798L30.0068 50.4992Z" fill="#F0F0F0"/>
<path d="M64.1148 54.8202L61.6754 56.3549H38.79L38.9175 56.1003L41.7169 50.4991L44.6437 53.4259H50.4995L53.4264 49.0346L56.3554 50.4991L59.2822 47.5723L64.1148 54.8202Z" fill="#6DA544"/>
<path d="M50.5 41.7166L51.2267 43.9532H53.5781L51.6757 45.335L52.4026 47.5718L50.5 46.1894L48.5974 47.5718L49.3243 45.335L47.4219 43.9532H49.7733L50.5 41.7166Z" fill="#FFDA44"/>
</svg>
