<svg width="101" height="101" viewBox="0 0 101 101" fill="none" xmlns="http://www.w3.org/2000/svg">
<path d="M101 16.834H0V84.1659H101V16.834Z" fill="#0052B4"/>
<path d="M41.5666 34.3987L42.2933 36.6353H44.6445L42.7423 38.0173L43.469 40.2537L41.5666 38.8715L39.6642 40.2537L40.3909 38.0173L38.4883 36.6353H40.8399L41.5666 34.3987Z" fill="#F0F0F0"/>
<path d="M23.044 55.6233L23.9524 58.4189H26.8916L24.5136 60.1464L25.4222 62.9422L23.044 61.2142L20.6659 62.9422L21.5741 60.1464L19.1963 58.4189H22.1353L23.044 55.6233Z" fill="#F0F0F0"/>
<path d="M28.544 23.6086L29.4522 26.4043H32.3916L30.0134 28.1319L30.922 30.9274L28.544 29.1995L26.1657 30.9274L27.0743 28.1319L24.6963 26.4043H27.6355L28.544 23.6086Z" fill="#F0F0F0"/>
<path d="M13.7178 34.5869L14.626 37.3826H17.5653L15.1872 39.1102L16.0958 41.9057L13.7178 40.178L11.3395 41.9057L12.2482 39.1102L9.87012 37.3826H12.8094L13.7178 34.5869Z" fill="#F0F0F0"/>
<path d="M95.3556 69.9314H23.2383C23.2383 69.9314 44.7864 52.4611 84.5076 26.3479C84.5076 26.3479 67.0608 51.7823 95.3556 69.9314Z" fill="#FFDA44"/>
<path d="M23.238 72.2168C21.0331 72.2168 21.0296 75.6433 23.238 75.6433H95.3553C97.5602 75.6433 97.5637 72.2168 95.3553 72.2168H23.238Z" fill="#FFDA44"/>
</svg>
