<svg width="101" height="101" viewBox="0 0 101 101" fill="none" xmlns="http://www.w3.org/2000/svg">
<path d="M101 16.8328H0V84.1668H101V16.8328Z" fill="#FFDA44"/>
<path d="M96.6089 21.2241H4.3916V79.7755H96.6089V21.2241Z" fill="#D80027"/>
<path d="M73.0102 79.7741H96.6087V65.9137L50.5 52.053L61.5435 70.0982L73.0102 79.7741Z" fill="#0052B4"/>
<path d="M96.6087 32.9468L50.5 52.0531H96.6087V32.9468Z" fill="#0052B4"/>
<path d="M63.2749 21.2236L50.5 52.0531L81.3295 21.2236H63.2749Z" fill="#0052B4"/>
<path d="M37.7256 21.2236L50.5005 52.0531V21.2236H37.7256Z" fill="#0052B4"/>
<path d="M4.3916 21.2236V32.9467L50.5003 52.0531L19.6706 21.2236H4.3916Z" fill="#0052B4"/>
<path d="M4.3916 52.053V65.9135L50.5003 52.053H4.3916Z" fill="#0052B4"/>
<path d="M50.9874 52.5281L60.5976 59.2192C62.31 56.7596 63.0841 53.647 62.5142 50.4639C61.3742 44.0978 55.2893 39.8613 48.9234 41.0013C42.5572 42.1413 38.3207 48.2261 39.4607 54.5921C40.0306 57.7752 41.8368 60.4256 44.2965 62.1381L50.9874 52.5281Z" fill="#FFDA44"/>
<path d="M97.0953 79.7543H4.87793L50.9866 52.5281L97.0953 79.7543Z" fill="#F0F0F0"/>
<path d="M55.6233 69.382C55.6233 72.2115 53.3295 73.0414 50.5001 73.0414C47.6708 73.0414 45.377 72.2115 45.377 69.382C45.377 66.5524 47.6708 64.2588 50.5001 64.2588C53.3295 64.259 55.6233 66.5526 55.6233 69.382Z" fill="#FFDA44"/>
<path d="M55.6233 69.3818C55.6233 72.2114 53.3295 74.505 50.5001 74.505C47.6708 74.505 45.377 72.2112 45.377 69.3818" fill="#0052B4"/>
</svg>
