<svg width="101" height="101" viewBox="0 0 101 101" fill="none" xmlns="http://www.w3.org/2000/svg">
<path d="M101 16.8333H0V84.1673H101V16.8333Z" fill="#338AF3"/>
<path d="M63.459 65.8689L64.1857 68.1055H66.5373L64.6349 69.4875L65.3616 71.7241L63.459 70.3419L61.5566 71.7241L62.2833 69.4875L60.3809 68.1055H62.7325L63.459 65.8689Z" fill="#FFDA44"/>
<path d="M82.1867 51.2312L82.9135 53.4678H85.2649L83.3624 54.8498L84.0892 57.0862L82.1867 55.7042L80.2843 57.0862L81.011 54.8498L79.1084 53.4678H81.46L82.1867 51.2312Z" fill="#FFDA44"/>
<path d="M86.8789 29.2747L87.6056 31.5111H89.9572L88.0548 32.8933L88.7815 35.1297L86.8789 33.7475L84.9765 35.1297L85.7032 32.8933L83.8008 31.5111H86.1522L86.8789 29.2747Z" fill="#FFDA44"/>
<path d="M88.0422 45.376L88.7687 47.6126H91.1203L89.2181 48.9946L89.9448 51.231L88.0422 49.8488L86.1398 51.231L86.8665 48.9946L84.9639 47.6126H87.3155L88.0422 45.376Z" fill="#FFDA44"/>
<path d="M66.8315 60.6088L68.927 61.6764L70.5896 60.0137L70.2217 62.3361L72.317 63.4037L69.9942 63.7716L69.6265 66.0942L68.5589 63.9988L66.2363 64.3669L67.8993 62.7042L66.8315 60.6088Z" fill="#FFDA44"/>
<path d="M66.8315 51.8264L68.927 52.894L70.5896 51.2312L70.2217 53.5538L72.317 54.6212L69.9942 54.9893L69.6265 57.3117L68.5589 55.2166L66.2363 55.5845L67.8993 53.9217L66.8315 51.8264Z" fill="#FFDA44"/>
<path d="M74.1496 57.4559L76.2452 58.5234L77.9079 56.8606L77.5402 59.1832L79.6352 60.2508L77.3124 60.6187L76.9447 62.9413L75.8773 60.846L73.5547 61.2141L75.2174 59.5513L74.1496 57.4559Z" fill="#FFDA44"/>
<path d="M74.1496 38.6525L76.2452 39.7199L77.9079 38.0571L77.5402 40.3797L79.6352 41.4473L77.3124 41.8152L76.9447 44.1378L75.8773 42.0425L73.5547 42.4106L75.2174 40.7476L74.1496 38.6525Z" fill="#FFDA44"/>
<path d="M81.2434 38.4269L83.3389 39.4943L85.0017 37.8318L84.6338 40.1542L86.729 41.2218L84.4062 41.5897L84.0384 43.9123L82.971 41.8169L80.6484 42.1848L82.3112 40.5221L81.2434 38.4269Z" fill="#FFDA44"/>
<path d="M50.5 16.8333H0V50.4992H50.5V16.8333Z" fill="#F0F0F0"/>
<path d="M28.4062 16.8328H22.0938V30.5098H0V36.8223H22.0938V50.4993H28.4062V36.8223H50.5V30.5098H28.4062V16.8328Z" fill="#D80027"/>
<path d="M38.8398 39.521L50.4998 45.9988V39.521H38.8398Z" fill="#0052B4"/>
<path d="M30.7393 39.521L50.5001 50.4992V47.3949L36.3272 39.521H30.7393Z" fill="#0052B4"/>
<path d="M45.2365 50.4993L30.7393 42.4446V50.4993H45.2365Z" fill="#0052B4"/>
<path d="M30.7393 39.521L50.5001 50.4992V47.3949L36.3272 39.521H30.7393Z" fill="#F0F0F0"/>
<path d="M30.7393 39.521L50.5001 50.4992V47.3949L36.3272 39.521H30.7393Z" fill="#D80027"/>
<path d="M8.91069 39.5208L0 44.4713V39.5208H8.91069Z" fill="#0052B4"/>
<path d="M19.7604 40.917V50.4992H2.51367L19.7604 40.917Z" fill="#0052B4"/>
<path d="M14.1727 39.521L0 47.3949V50.4992L19.7609 39.521H14.1727Z" fill="#D80027"/>
<path d="M11.66 27.8111L0 21.3333V27.8111H11.66Z" fill="#0052B4"/>
<path d="M19.7609 27.811L0 16.8328V19.9371L14.1729 27.811H19.7609Z" fill="#0052B4"/>
<path d="M5.26367 16.8328L19.7609 24.8875V16.8328H5.26367Z" fill="#0052B4"/>
<path d="M19.7609 27.811L0 16.8328V19.9371L14.1729 27.811H19.7609Z" fill="#F0F0F0"/>
<path d="M19.7609 27.811L0 16.8328V19.9371L14.1729 27.811H19.7609Z" fill="#D80027"/>
<path d="M41.5898 27.811L50.5005 22.8606V27.811H41.5898Z" fill="#0052B4"/>
<path d="M30.7393 26.4149V16.8328H47.986L30.7393 26.4149Z" fill="#0052B4"/>
<path d="M36.3274 27.811L50.5001 19.9371V16.8328L30.7393 27.811H36.3274Z" fill="#D80027"/>
</svg>
