<svg width="101" height="101" viewBox="0 0 101 101" fill="none" xmlns="http://www.w3.org/2000/svg">
<path d="M101 16.8328H0V84.1668H101V16.8328Z" fill="#338AF3"/>
<path d="M50.5484 38.8696C44.112 38.8696 38.8945 44.0871 38.8945 50.5235C38.8945 56.9599 44.112 62.1773 50.5484 62.1773C56.9846 62.1773 62.2023 56.9599 62.2023 50.5235C62.2023 44.0871 56.9844 38.8696 50.5484 38.8696ZM47.6348 50.5235C47.6348 48.9146 48.9393 47.6101 50.5482 47.6101C52.1571 47.6101 53.4616 48.9146 53.4616 50.5235C53.4616 52.1328 52.1571 53.4369 50.5482 53.4369C48.9393 53.4369 47.6348 52.1326 47.6348 50.5235ZM53.5689 45.5396C53.1168 45.265 52.6236 45.0517 52.1019 44.9075V41.9235C53.416 42.1592 54.6276 42.6881 55.6676 43.4409L53.5689 45.5396ZM49.1886 44.8576C48.642 44.9882 48.1256 45.1959 47.6508 45.4688L45.5422 43.3602C46.6082 42.6139 47.8472 42.0983 49.1882 41.8886V44.8576H49.1886ZM47.6508 55.5782C48.1254 55.8506 48.6418 56.0584 49.1884 56.1894V59.158C47.8474 58.9485 46.6084 58.4329 45.5424 57.6864L47.6508 55.5782ZM52.1021 56.1394C52.624 55.9954 53.1168 55.782 53.5689 55.5074L55.6674 57.6059C54.6276 58.3589 53.4158 58.8876 52.1019 59.1233V56.1394H52.1021ZM55.6027 53.4209C55.8594 52.9743 56.0598 52.491 56.1916 51.9801H59.1653C58.9464 53.2838 58.4394 54.4891 57.7111 55.5291L55.6027 53.4209ZM56.1918 49.0667C56.0602 48.5558 55.8596 48.0727 55.6029 47.6261L57.7115 45.5175C58.4398 46.5575 58.9468 47.7628 59.1657 49.0665H56.1918V49.0667ZM43.466 45.4041L45.5645 47.5026C45.2727 47.9827 45.0484 48.5084 44.9048 49.0665H41.931C42.1579 47.7152 42.6947 46.4697 43.466 45.4041ZM41.9312 51.9801H44.905C45.0486 52.5382 45.2729 53.0639 45.5647 53.544L43.4662 55.6425C42.6947 54.5773 42.1579 53.3318 41.9312 51.9801Z" fill="#F0F0F0"/>
<path d="M69.4861 50.5236C69.4861 45.3436 67.4056 40.6501 64.0355 37.2309L60.9453 40.321C63.5246 42.9492 65.1161 46.5503 65.1161 50.5236C65.1161 58.5689 58.5939 65.0909 50.5488 65.0909C42.5033 65.0909 35.9816 58.5689 35.9816 50.5236C35.9816 46.5008 37.612 42.859 40.2482 40.223L37.158 37.1328C33.7311 40.5597 31.6113 45.2943 31.6113 50.5236C31.6113 59.1897 37.4324 66.496 45.3779 68.7464C44.507 70.4013 44.6395 72.4848 45.8837 74.0375C47.518 72.7276 49.2104 71.3714 50.6459 70.2212C52.0814 71.3714 53.7735 72.7274 55.4081 74.0375C56.6649 72.4692 56.7885 70.3592 55.8882 68.6965C63.7467 66.3912 69.4861 59.1281 69.4861 50.5236Z" fill="#F0F0F0"/>
</svg>
