<svg width="101" height="101" viewBox="0 0 101 101" fill="none" xmlns="http://www.w3.org/2000/svg">
<path d="M101 16.8328H0V84.1647H101V16.8328Z" fill="#FFDA44"/>
<path d="M101 16.8328H50.5V84.1668H101V16.8328Z" fill="#F0F0F0"/>
<path d="M63.3917 46.128L69.7186 54.498C68.7219 56.0073 68.7272 58.0411 69.8798 59.5662C71.3423 61.5007 74.0962 61.8836 76.031 60.4213C77.9655 58.9588 78.3484 56.2049 76.8859 54.2702C75.7333 52.7451 73.7778 52.1855 72.0539 52.7325L62.193 39.6875L59.8577 41.4528L56.3545 44.1009L59.8854 48.7716L63.3917 46.128ZM72.5005 55.7506C73.1456 55.263 74.0634 55.3908 74.5511 56.0357C75.0385 56.6806 74.9109 57.5986 74.266 58.0863C73.6212 58.5735 72.7031 58.4461 72.2156 57.801C71.7282 57.1564 71.8556 56.2381 72.5005 55.7506Z" fill="#ACABB1"/>
<path d="M74.2445 48.7721L77.7754 44.1014L74.2721 41.4533L71.9369 39.688L62.076 52.733C60.3519 52.1856 58.3968 52.7454 57.244 54.2707C55.7815 56.2054 56.1643 58.9593 58.0989 60.4218C60.0337 61.8843 62.7875 61.5014 64.2501 59.5666C65.4031 58.0416 65.4082 56.0078 64.4112 54.4985L70.7381 46.1285L74.2445 48.7721ZM61.9146 57.8011C61.4272 58.4462 60.5091 58.5736 59.8643 58.0864C59.2192 57.5987 59.0918 56.6806 59.5792 56.0358C60.0666 55.3911 60.9847 55.2633 61.6298 55.7507C62.2744 56.2382 62.4021 57.1564 61.9146 57.8011Z" fill="#FFDA44"/>
</svg>
