<svg width="101" height="101" viewBox="0 0 101 101" fill="none" xmlns="http://www.w3.org/2000/svg">
<path d="M101 16.8333H0V84.1673H101V16.8333Z" fill="black"/>
<path d="M101 26.4722H0V36.1121H101V26.4722Z" fill="#FFDA44"/>
<path d="M101 65.032H0V74.672H101V65.032Z" fill="#FFDA44"/>
<path d="M101 16.8333H0V26.4732H101V16.8333Z" fill="#6DA544"/>
<path d="M101 36.1133H0V45.7533H101V36.1133Z" fill="#D80027"/>
<path d="M101 55.3936H0V65.0335H101V55.3936Z" fill="#D80027"/>
<path d="M101 74.6733H0V84.1673H101V74.6733Z" fill="#6DA544"/>
<path d="M54.641 50.4992L20.9751 84.1651H0V16.8333H20.9751L54.641 50.4992Z" fill="#F0F0F0"/>
<path d="M50.4995 50.4993L16.833 84.1658H20.973L54.6398 50.4993L20.973 16.8328H16.833L50.4995 50.4993Z" fill="black"/>
<path d="M20.2125 39.9602L22.828 48.011H31.294L24.4454 52.9872L27.0611 61.0384L20.2125 56.0626L13.3634 61.0384L15.9795 52.9872L9.13086 48.011H17.5965L20.2125 39.9602Z" fill="#D80027"/>
<path d="M27.4081 51.1579L20.5908 48.7428C20.5908 48.7428 20.0872 44.0173 20.0566 43.8573C19.8252 42.6382 18.7541 41.7168 17.4679 41.7168C16.0129 41.7168 14.833 42.8964 14.833 44.3517C14.833 44.5929 14.8681 44.8255 14.9289 45.0476L13.0176 46.972C13.0176 46.972 15.2879 46.972 16.4163 46.972C16.4163 50.4995 13.784 50.4995 13.784 54.0126L15.2441 57.5257H24.0268L25.4909 54.0126H25.4901C25.6369 53.6754 25.7256 53.328 25.7625 52.9807C27.0244 52.4699 27.4081 51.1579 27.4081 51.1579Z" fill="#FFDA44"/>
</svg>
