<svg width="101" height="101" viewBox="0 0 101 101" fill="none" xmlns="http://www.w3.org/2000/svg">
<path d="M101 16.8328H0V84.1668H101V16.8328Z" fill="#0052B4"/>
<path d="M50.5003 31.5613L51.5077 34.6613H54.7671L52.1301 36.5773L53.1373 39.6774L50.5003 37.7615L47.8632 39.6774L48.8704 36.5773L46.2334 34.6613H49.4928L50.5003 31.5613Z" fill="#FFDA44"/>
<path d="M37.1091 37.1079L40.0135 38.5876L42.3183 36.283L41.8082 39.5023L44.7126 40.9822L41.4932 41.4922L40.9832 44.7117L39.5034 41.8074L36.2842 42.3171L38.589 40.0123L37.1091 37.1079Z" fill="#FFDA44"/>
<path d="M31.5625 50.4988L34.6625 49.4916L34.6627 46.2322L36.5784 48.8692L39.6786 47.862L37.7626 50.4988L39.6786 53.1359L36.5784 52.1288L34.6627 54.7657V51.5063L31.5625 50.4988Z" fill="#FFDA44"/>
<path d="M37.1091 63.8897L38.5886 60.9852L36.2842 58.6805L39.5038 59.1905L40.9832 56.2861L41.4932 59.5057L44.7126 60.0154L41.8084 61.4953L42.3183 64.7145L40.0135 62.4098L37.1091 63.8897Z" fill="#FFDA44"/>
<path d="M50.5003 69.4362L49.4928 66.3362H46.2334L48.8706 64.4203L47.8632 61.3203L50.5003 63.2362L53.1373 61.3203L52.1301 64.4203L54.7671 66.3362H51.5075L50.5003 69.4362Z" fill="#FFDA44"/>
<path d="M63.8905 63.8897L60.9862 62.41L58.6813 64.7149L59.1914 61.4951L56.2871 60.0154L59.5063 59.5057L60.0164 56.2861L61.4963 59.1905L64.7155 58.6805L62.4106 60.9854L63.8905 63.8897Z" fill="#FFDA44"/>
<path d="M69.4374 50.4988L66.3374 51.5063V54.7657L64.4215 52.1284L61.3213 53.1359L63.2373 50.4988L61.3213 47.862L64.4215 48.869L66.3372 46.2322L66.3374 49.4918L69.4374 50.4988Z" fill="#FFDA44"/>
<path d="M63.8905 37.1079L62.4108 40.0123L64.7157 42.3171L61.4959 41.807L60.0164 44.7115L59.5063 41.4922L56.2871 40.9822L59.1914 39.5023L58.6813 36.283L60.9862 38.5878L63.8905 37.1079Z" fill="#FFDA44"/>
</svg>
