<svg width="101" height="101" viewBox="0 0 101 101" fill="none" xmlns="http://www.w3.org/2000/svg">
<path d="M101 16.8342H0V84.1661H101V16.8342Z" fill="#F0F0F0"/>
<path d="M101 25.2502H0V33.6662H101V25.2502Z" fill="#D80027"/>
<path d="M101 33.6663H0V42.0822H101V33.6663Z" fill="#0052B4"/>
<path d="M101 50.5002H0V58.9162H101V50.5002Z" fill="#D80027"/>
<path d="M101 58.9163H0V67.3322H101V58.9163Z" fill="#0052B4"/>
<path d="M101 75.7502H0V84.1662H101V75.7502Z" fill="#D80027"/>
<path d="M50.5 16.8342H0V50.5002H50.5V16.8342Z" fill="#F0F0F0"/>
<path d="M28.4062 16.8337H22.0938V30.511H0V36.8235H22.0938V50.5005H28.4062V36.8235H50.5V30.511H28.4062V16.8337Z" fill="#D80027"/>
<path d="M38.8398 39.5225L50.4998 46.0001V39.5225H38.8398Z" fill="#0052B4"/>
<path d="M30.7393 39.5225L50.5001 50.5007V47.3963L36.3272 39.5225H30.7393Z" fill="#0052B4"/>
<path d="M45.2365 50.5008L30.7393 42.446V50.5008H45.2365Z" fill="#0052B4"/>
<path d="M30.7393 39.5225L50.5001 50.5007V47.3963L36.3272 39.5225H30.7393Z" fill="#F0F0F0"/>
<path d="M30.7393 39.5225L50.5001 50.5007V47.3963L36.3272 39.5225H30.7393Z" fill="#D80027"/>
<path d="M8.91069 39.5222L0 44.4726V39.5222H8.91069Z" fill="#0052B4"/>
<path d="M19.7604 40.9182V50.5004H2.51367L19.7604 40.9182Z" fill="#0052B4"/>
<path d="M14.1727 39.5225L0 47.3963V50.5007L19.7609 39.5225H14.1727Z" fill="#D80027"/>
<path d="M11.66 27.8121L0 21.3345V27.8121H11.66Z" fill="#0052B4"/>
<path d="M19.7609 27.812L0 16.8337V19.9381L14.1729 27.812H19.7609Z" fill="#0052B4"/>
<path d="M5.26367 16.8337L19.7609 24.8887V16.8337H5.26367Z" fill="#0052B4"/>
<path d="M19.7609 27.812L0 16.8337V19.9381L14.1729 27.812H19.7609Z" fill="#F0F0F0"/>
<path d="M19.7609 27.812L0 16.8337V19.9381L14.1729 27.812H19.7609Z" fill="#D80027"/>
<path d="M41.5898 27.8122L50.5005 22.8621V27.8122H41.5898Z" fill="#0052B4"/>
<path d="M30.7393 26.4162V16.834H47.986L30.7393 26.4162Z" fill="#0052B4"/>
<path d="M36.3274 27.812L50.5001 19.9383V16.8337L30.7393 27.812H36.3274Z" fill="#D80027"/>
</svg>
