<svg width="101" height="101" viewBox="0 0 101 101" fill="none" xmlns="http://www.w3.org/2000/svg">
<path d="M101 16.834H0V84.1659H101V16.834Z" fill="#F0F0F0"/>
<path d="M101 50.5H0V84.1659H101V50.5Z" fill="#496E2D"/>
<path d="M74.4348 39.3299C73.1289 35.6259 69.5996 32.9703 65.4485 32.9703H57.2817C52.0199 32.9703 47.754 37.2359 47.754 42.498C47.754 44.2172 48.2117 45.8695 49.0082 47.262C45.9756 47.2371 43.169 47.2829 41.4022 47.262C41.4022 43.5875 41.4022 38.9064 41.4022 37.927L41.7774 37.5518C43.4619 35.8673 42.9001 33.06 42.9001 33.06C42.9001 33.06 40.0932 32.4986 38.4089 34.1831L36.4457 36.1463H34.2563C29.4328 36.1463 25.5226 40.0564 25.5226 44.88H31.8743V52.0257C31.8743 53.0708 32.0852 54.0667 32.4659 54.9735L30.2865 56.7897H27.1105V53.6137H23.9346V59.9655H38.2261V66.3172H35.0501V69.4932H41.4018V63.1415L44.3131 59.6479H51.1943L54.1056 63.1415V66.3174H50.9296V69.4934H63.6331V52.0259C63.6331 49.3948 65.7659 47.262 68.3971 47.262C68.4647 47.262 68.5316 47.2643 68.5987 47.2671C68.4671 46.758 68.3971 46.2242 68.3971 45.674C68.3973 42.2715 71.0728 39.4942 74.4348 39.3299ZM57.2815 66.3174V59.6481H57.5463L60.4575 63.1417V66.3176H57.2815V66.3174Z" fill="#D80027"/>
</svg>
